<?xml version="1.0" encoding="UTF-8"?>
<svg id="Layer_1" xmlns="http://www.w3.org/2000/svg" version="1.1" viewBox="0 0 1080 462.1">
  <!-- Generator: Adobe Illustrator 29.1.0, SVG Export Plug-In . SVG Version: 2.1.0 Build 142)  -->
  <defs>
    <style>
      .st0 {
        fill: #fff;
      }

      .st1 {
        fill: #c39340;
      }
    </style>
  </defs>
  <path class="st1" d="M452.8,51.2c-4.5-4.5-10.4-6.9-16.7-6.9s-12.3,2.5-16.7,6.9l-49.8,49.8c-.2.2-.4.4-.6.6-18.3-15-39.5-26.5-62.7-33-15.2-4.5-30.9-6.8-46.9-7-1,0-1.9,0-2.9,0-7.7,0-15.4.3-22.9,1.2,0,0,.2.1.3.2-20.6,2.6-40.4,8.9-59.4,18.5-64.7,32.9-104,105.9-95.3,177.8,5.3,43.6,23.9,80.5,55.8,110.9,57.3,54.5,149.5,63.6,215.9,20.4,7.6-5,14.7-10.3,21.3-15.8,0,.1,0,.2,0,.3,5.4-4.6,10.6-9.6,15.4-15,21.7-23.2,35.9-50.8,42.7-82.8,0-.2.1-.5.2-.7.2-1,.4-2,.6-3,.1-.5.2-1.1.3-1.6,1.5-8,2.5-16.3,3-24.8.2-2.6.2-5.3,0-7.9,0-2,0-4.1,0-6.1-.9-35.2-13-69-33.1-97l51.5-51.5c9.2-9.2,9.2-24.2,0-33.4ZM239.3,389.8c-75.7-8.3-133.8-73.2-133.9-146.9-.4-25.6,4.8-47.6,14.6-68.5,4-8.5,11.8-11.8,19.2-8.4,7.7,3.6,10.2,11.6,6.1,20.3-9.8,21.1-14.1,43.1-11.3,66.4,5.5,45.6,29,79.2,70.3,98.6,61.9,29.2,132.9,3.2,163.3-58.3,3.1-6.2.7-12.8-5.6-16.2-6.5-3.4-14.2-1.2-17.4,5-17.5,33.5-44.9,52.9-82.7,55.3-34,2.1-61.9-11.3-83-38.1-6.3-8-2.9-18.8,6.5-22,6-2,11.4,0,16.4,6.2,29.7,37.1,87.4,34.5,113-5.1,5.1-7.9,1.3-17.7-7.7-20.1-6.4-1.7-11.3.2-15.9,6.2-10.2,13.3-23.6,19.6-40.4,17.5-24.5-3-41.3-27.1-36-51.1,5.4-24,30.3-39.1,53.5-31.4,7.1,2.4,13.4,7.6,19.9,11.8,5.8,3.8,14,3.2,18.6-1.9,5-5.5,4.8-12.8-.4-18.3-25-26.1-68.5-27.8-95.6-3.7-15.6,13.9-23.3,31.3-24.1,52-.4,9-6.8,15-14.3,14.6-8.3-.4-14-7.1-13.6-16.5.3-5.2.9-10.5,1.8-15.7,9-51.6,60.8-87.6,112.4-78.2,23.6,4.3,43.2,15.6,58.7,33.9,4.3,5.1,11.8,5.5,17.3,1,5.7-4.6,7-11.8,2.6-16.9-30.4-35-68.7-49.7-114.6-43.2-24.5,3.5-45.7,14.4-64.2,31-2.5,2.3-5.9,4.3-9.1,4.9-6.5,1.2-11.9-2.1-14.6-7.8-2.7-5.8-1.5-11.7,4.2-17,27.4-25.2,59.7-39,96.9-40.6,4.6-.2,9.2-.2,13.8,0,0,0,0,0,.1.1,41.8,2.1,82.3,21.5,110.6,56.8,21.3,26.6,32.1,58.7,32.9,90.8-.2,1-.2,2-.2,3,.1,2.6.1,5.2,0,7.7-.2,4.1-.5,8.1-1.1,12.1,0,.6-.2,1.3-.3,1.9-12.3,81.2-85.4,137.5-166.7,128.5Z"/>
  <g>
    <path class="st0" d="M573.1,150.6c-1-.9-2.1-1.6-3.4-2-2.5-.8-5-.7-7.4.3-1.3.6-2.5,1.5-3.5,2.6-2.6,3-5.6,5.2-8.9,6.8-3.3,1.5-6.8,2.3-10.5,2.3s-7.1-.8-10.3-2.3c-3.2-1.5-6.1-3.6-8.6-6.3-2.4-2.6-4.4-5.8-5.8-9.4-1.4-3.6-2.1-7.5-2.1-11.6s.7-7.9,2.1-11.5c1.4-3.6,3.4-6.7,5.8-9.4,2.4-2.6,5.3-4.8,8.6-6.3,3.2-1.5,6.6-2.3,10.3-2.3s7.2.8,10.5,2.3c3.3,1.6,6.3,3.9,8.9,6.8,1,1.2,2.2,2,3.6,2.6,2.4,1,4.9,1.1,7.4.3,1.2-.4,2.3-1.1,3.3-2,2-1.8,3.2-4.1,3.4-6.8.2-2.7-.6-5.2-2.4-7.3-4.4-5.1-9.6-9.1-15.6-11.9-6-2.8-12.3-4.2-18.9-4.2s-12.6,1.3-18.3,4c-5.7,2.6-10.7,6.2-14.9,10.7-4.2,4.5-7.5,9.7-10,15.7-2.4,6-3.7,12.4-3.7,19.2s.6,8.9,1.6,13.1c1.1,4.2,2.7,8.1,4.7,11.8,2,3.7,4.5,7,7.3,10,2.9,3,6,5.6,9.5,7.7,3.5,2.1,7.2,3.8,11.2,5,4,1.2,8.2,1.8,12.5,1.8,6.6,0,12.9-1.4,18.9-4.2,6-2.8,11.2-6.7,15.6-11.8,1.7-2.1,2.6-4.6,2.4-7.2-.2-2.7-1.3-5-3.4-6.8Z"/>
    <path class="st0" d="M595.1,170.7c3.1,3.1,6.7,5.5,10.9,7.3,4.2,1.8,8.7,2.7,13.4,2.7s9.2-.9,13.4-2.7c4.1-1.8,7.8-4.2,10.9-7.3,3.1-3.1,5.6-6.7,7.4-10.8,1.8-4.1,2.7-8.6,2.7-13.2v-54.9c0-2.7-1-5.2-3-7.1-1.9-1.9-4.4-2.9-7.1-2.9s-5.2,1-7.1,2.9c-1.9,1.9-2.9,4.3-2.9,7.1v54.9c0,1.9-.4,3.8-1.1,5.4-.7,1.7-1.8,3.2-3.1,4.5-1.3,1.3-2.8,2.3-4.6,3-1.7.7-3.6,1.1-5.5,1.1s-3.8-.4-5.5-1.1c-1.7-.7-3.3-1.8-4.6-3.1-1.3-1.3-2.3-2.8-3.1-4.5-.7-1.7-1.1-3.5-1.1-5.4v-54.9c0-2.7-1-5.2-3-7.1-1.9-1.9-4.4-2.9-7.1-2.9s-5.2,1-7.1,2.9c-1.9,1.9-2.9,4.3-2.9,7.1v54.9c0,4.7.9,9.1,2.7,13.2,1.8,4.1,4.3,7.7,7.4,10.8Z"/>
    <path class="st0" d="M677.7,180.7c2.7,0,5.2-1,7.1-2.9,1.9-1.9,3-4.4,3-7.1v-26.9h17.2c4.3,0,8.4-.8,12.1-2.5,3.7-1.6,7-3.9,9.8-6.7,2.8-2.8,5-6.1,6.7-9.8,1.6-3.8,2.5-7.8,2.5-12.1s-.8-8.4-2.5-12.1c-1.6-3.7-3.9-7-6.7-9.8-2.8-2.8-6.1-5-9.8-6.6-3.8-1.6-7.8-2.5-12.1-2.5h-27.2c-2.7,0-5.2,1-7.1,2.9-1.9,1.9-2.9,4.3-2.9,7.1v79c0,2.7,1,5.2,2.9,7.1,1.9,1.9,4.3,2.9,7.1,2.9ZM704.9,123.8h-17.2v-22.1h17.2c1.5,0,2.9.3,4.3.8,1.3.6,2.5,1.4,3.5,2.4,1,1,1.8,2.2,2.4,3.5.6,1.3.9,2.7.9,4.3s-.3,2.9-.9,4.3c-.6,1.4-1.4,2.5-2.4,3.5-1,1-2.2,1.8-3.5,2.4-1.3.6-2.7.9-4.3.9Z"/>
    <path class="st0" d="M824.4,161.9c-.8-.9-1.6-1.9-2.4-2.8,1.1-2,2-4.1,2.7-6.3,1-3,1.5-6,1.5-8.9s-1-4.9-2.8-6.6c-1.8-1.7-4.1-2.7-6.6-2.7s-4.9.9-6.6,2.7c-1.3,1.3-2.2,2.9-2.5,4.7-1.2-1.6-2.5-3.1-3.7-4.7-1.8-2.4-3.5-4.7-5.1-7.1,1.6-.9,3.2-1.8,4.7-2.8,2.7-1.7,5.2-3.5,7.4-5.5,2.3-2.1,4.2-4.4,5.6-7,1.5-2.7,2.3-5.9,2.3-9.3s-.6-6.3-1.9-9.1c-1.3-2.8-3-5.3-5.1-7.4-2.2-2.1-4.7-3.8-7.6-5-4.5-1.9-9.7-2.5-15-1.1-1.8.5-3.6,1.2-5.4,2.1-1.7.9-3.4,2.1-4.9,3.4-1.5,1.3-2.9,2.8-4,4.4-2.6,3.5-4.2,7.5-4.8,11.7-.5,4.2-.1,8.5,1.3,13,.5,1.4,1,2.9,1.5,4.2.2.5.4,1,.7,1.5-1.5,1.1-3,2.3-4.4,3.5-2.2,1.9-4.2,4.1-5.9,6.4-1.8,2.4-3.2,5.1-4.2,8-1,3-1.6,6.3-1.6,9.8s1,9.1,3,12.8c2,3.6,4.5,6.6,7.7,8.9,3.1,2.3,6.6,4,10.4,5.1,7.8,2.2,16,2.3,23.3-.8,2.6-1.1,5.1-2.5,7.3-4.1.2.3.5.6.7.8.8.9,1.5,1.8,2.3,2.7.9,1.1,2,1.9,3.3,2.5,1.2.5,2.5.8,3.9.8,2.2,0,4.3-.8,6-2.3,1.9-1.7,3-3.8,3.2-6.3.2-2.5-.6-4.9-2.2-6.7-.8-.9-1.6-1.9-2.4-2.8ZM778.7,144.5c1.1-1.5,2.6-2.9,4.4-4.4,2.1,3.1,4.4,6.3,6.8,9.4,2.4,3.1,4.9,6.3,7.5,9.4-.7.4-1.4.8-2.1,1.1-1.6.7-3.2,1.1-4.9,1.1s-.9,0-1.7,0c-.8,0-1.7-.2-2.9-.4-1.1-.2-2.3-.6-3.5-1.1-1-.4-2-1-2.9-1.7-.8-.7-1.5-1.6-2.1-2.6-.5-1-.8-2.2-.8-3.8,0-2.7.7-4.9,2.2-6.9ZM788.9,107.3c.4-1.4.9-2.5,1.4-3.3.7-1,1.6-1.8,2.5-2.2,1.2-.6,1.9-.7,2.3-.7.8,0,1.5.1,2.1.4.6.2,1.2.6,1.6,1,.5.4.8.9,1.1,1.5.2.5.4,1.1.4,1.7s-.2.8-.5,1.2c-.6.8-1.5,1.7-2.7,2.5-1.3,1-2.9,2-4.6,3-.8.5-1.6.9-2.4,1.4-.2-.6-.4-1.2-.6-1.7-.6-2-.8-3.7-.5-4.8Z"/>
    <path class="st0" d="M573.1,261.4c-1-.9-2.1-1.6-3.4-2-2.5-.8-5-.7-7.4.3-1.3.6-2.5,1.5-3.5,2.6-2.6,3-5.6,5.2-8.9,6.8-3.3,1.5-6.8,2.3-10.5,2.3s-7.1-.8-10.3-2.3c-3.2-1.5-6.1-3.6-8.6-6.3-2.4-2.6-4.4-5.8-5.8-9.4-1.4-3.6-2.1-7.5-2.1-11.6s.7-7.9,2.1-11.5c1.4-3.6,3.4-6.7,5.8-9.4,2.4-2.6,5.3-4.8,8.6-6.3,3.2-1.5,6.6-2.3,10.3-2.3s7.2.8,10.5,2.3c3.3,1.6,6.3,3.9,8.9,6.8,1,1.2,2.2,2,3.6,2.6,2.4,1,4.9,1.1,7.4.3,1.2-.4,2.3-1.1,3.3-2,2-1.8,3.2-4.1,3.4-6.8.2-2.7-.6-5.2-2.4-7.3-4.4-5.1-9.6-9.1-15.6-11.9-6-2.8-12.3-4.2-18.9-4.2s-12.6,1.3-18.3,4c-5.7,2.6-10.7,6.2-14.9,10.7-4.2,4.5-7.5,9.7-10,15.7-2.4,6-3.7,12.4-3.7,19.2s.6,8.9,1.6,13.1c1.1,4.2,2.7,8.1,4.7,11.8,2,3.7,4.5,7,7.3,10,2.9,3,6,5.6,9.5,7.7,3.5,2.1,7.2,3.8,11.2,5,4,1.2,8.2,1.8,12.5,1.8,6.6,0,12.9-1.4,18.9-4.2,6-2.8,11.2-6.7,15.6-11.8,1.7-2.1,2.6-4.6,2.4-7.2-.2-2.7-1.3-5-3.4-6.8Z"/>
    <path class="st0" d="M651,236.8c2.6-4.4,3.9-9.3,3.9-14.7s-.8-7.9-2.3-11.5c-1.5-3.6-3.7-6.7-6.4-9.4-2.7-2.7-5.9-4.8-9.4-6.4-3.6-1.6-7.5-2.3-11.6-2.3h-28.5c-2.7,0-5.2,1-7.1,2.9-1.9,1.9-2.9,4.3-2.9,7.1v79c0,2.7,1,5.2,2.9,7.1,1.9,1.9,4.3,2.9,7.1,2.9s5.2-1,7.1-2.9c1.9-1.9,3-4.4,3-7.1v-29.5h17.7c3.1,5.6,6.9,10.7,11.2,15.3,4.8,5,10.1,9.4,15.9,13,5.8,3.6,12,6.4,18.6,8.3,6.6,1.9,13.4,2.9,20.3,2.9s10-.5,14.8-1.5c4.8-1,9.6-2.5,14.3-4.5,2.4-1.1,4.3-3,5.3-5.4,1-2.5,1-5.1,0-7.6h0c-.8-2-2.1-3.4-3.8-4.5-1.7-1-3.5-1.6-5.4-1.6s-2.8.3-3.9.8c-3.4,1.4-6.9,2.5-10.4,3.2-8.3,1.7-17.1,1.4-25.2-.9-4.7-1.3-9.1-3.2-13.2-5.7-4.1-2.4-8-5.5-11.4-9-2.8-2.8-5.3-6-7.5-9.4,2.9-2.4,5.4-5.2,7.4-8.6ZM634.8,222.2c0,1.4-.2,2.6-.8,3.8-.5,1.2-1.2,2.2-2.1,3.1-.9.9-1.9,1.6-3.1,2.1-1.2.5-2.4.8-3.8.8h-18.5v-19.4h18.5c1.4,0,2.6.2,3.8.8,1.2.5,2.2,1.2,3.1,2.1.9.9,1.6,1.9,2.1,3.1.5,1.2.8,2.4.8,3.7Z"/>
    <path class="st0" d="M668.8,254.5c2.5,2.5,5.5,4.6,9,6,3.4,1.5,7.1,2.2,11,2.2s7.5-.7,11-2.2c3.4-1.5,6.4-3.5,9-6,2.6-2.5,4.6-5.5,6.1-8.9,1.5-3.4,2.2-7.1,2.2-10.9v-32.2c0-2.5-.9-4.8-2.7-6.6-1.8-1.8-4.1-2.7-6.6-2.7s-4.9,1-6.6,2.8c-1.7,1.8-2.7,4.1-2.7,6.6v32.2c0,1.3-.2,2.5-.7,3.7-.5,1.2-1.2,2.1-2,3-.9.9-1.9,1.5-3.1,2-2.3,1-5.1,1-7.4,0-1.2-.5-2.2-1.2-3.1-2.1-.9-.9-1.5-1.8-2-3-.5-1.1-.7-2.3-.7-3.7v-32.2c0-2.5-.9-4.8-2.7-6.6-1.8-1.8-4.1-2.7-6.6-2.7s-4.9,1-6.6,2.8c-1.7,1.8-2.7,4.1-2.7,6.5v32.2c0,3.8.7,7.5,2.2,10.9,1.5,3.4,3.5,6.4,6,8.9Z"/>
    <path class="st0" d="M811.6,192.8h-.2c-2.2-.6-4.3-.5-6.4.4-2.1.9-3.7,2.3-4.8,4.2l-24,41.6-24-41.6c-1.1-2-2.8-3.4-4.8-4.2-2.1-.9-4.2-1-6.4-.4h-.2c-2.1.7-3.8,1.9-5.1,3.6-1.4,1.8-2.1,3.8-2.1,6.1v79c0,2.7,1,5.2,2.9,7.1,1.9,1.9,4.3,2.9,7.1,2.9s5.2-1,7.1-2.9c1.9-1.9,3-4.4,3-7.1v-41.6l14,24.3c.9,1.5,2.1,2.8,3.7,3.7,3.1,1.8,7,1.8,10,0,1.5-.9,2.7-2.1,3.6-3.6l14.1-24.3v41.7c0,2.7,1,5.2,3,7.1,1.9,1.9,4.3,2.9,7,2.9s5.2-1,7.1-2.9c1.9-1.9,3-4.4,3-7.1v-79c0-2.3-.7-4.3-2.1-6.1-1.4-1.7-3.1-2.9-5.1-3.5Z"/>
    <path class="st0" d="M901.9,222.2c0-4.1-.8-7.9-2.3-11.5-1.5-3.6-3.7-6.7-6.4-9.4-2.7-2.7-5.9-4.8-9.4-6.4-3.6-1.6-7.5-2.3-11.6-2.3h-28.5c-2.7,0-5.2,1-7.1,2.9-1.9,1.9-2.9,4.3-2.9,7.1v79c0,2.7,1,5.2,2.9,7.1,1.9,1.9,4.3,2.9,7.1,2.9h28.5c4.1,0,8-.8,11.6-2.3,3.6-1.5,6.7-3.7,9.4-6.4,2.7-2.7,4.8-5.9,6.4-9.4,1.6-3.6,2.3-7.5,2.3-11.5s-.9-8.6-2.8-12.5c-1.3-2.7-2.9-5.1-4.8-7.3,1.9-2.2,3.5-4.6,4.8-7.3,1.8-3.8,2.8-8,2.8-12.5ZM872.2,271.4h-18.5v-19.4h18.5c1.4,0,2.6.2,3.8.8,1.2.5,2.2,1.2,3.1,2.1.9.9,1.6,1.9,2.1,3.1.5,1.2.8,2.4.8,3.8s-.2,2.5-.8,3.7c-.5,1.2-1.2,2.2-2.1,3.1-.9.9-1.9,1.6-3.1,2.1-1.2.5-2.4.8-3.8.8ZM881.2,225.9c-.5,1.2-1.2,2.2-2.1,3.1-.9.9-1.9,1.6-3.1,2.1-1.2.5-2.4.8-3.8.8h-18.5v-19.5h18.5c1.4,0,2.6.2,3.8.8,1.2.5,2.2,1.2,3.1,2.1.9.9,1.6,1.9,2.1,3.1.5,1.2.8,2.4.8,3.8s-.2,2.6-.8,3.8Z"/>
    <path class="st0" d="M999,274.4c-1.9-1.9-4.3-2.9-7.1-2.9h-57.8v-69c0-2.7-1-5.2-3-7.1-1.9-1.9-4.4-2.9-7.1-2.9s-5.2,1-7.1,2.9c-1.9,1.9-2.9,4.3-2.9,7.1v79c0,2.7,1,5.2,2.9,7.1,1.9,1.9,4.3,2.9,7.1,2.9h67.9c2.7,0,5.2-1,7.1-2.9,1.9-1.9,2.9-4.3,2.9-7.1s-1-5.2-2.9-7.1Z"/>
    <path class="st0" d="M955.9,262.7h32c2.5,0,4.8-.9,6.6-2.7,1.8-1.8,2.7-4.1,2.7-6.6s-1-4.9-2.8-6.7c-1.8-1.7-4.1-2.7-6.5-2.7h-22.6v-6.8h18.2c2.6,0,4.9-.9,6.6-2.7,1.8-1.8,2.7-4.1,2.7-6.6s-.9-4.8-2.7-6.6c-1.8-1.8-4.1-2.8-6.6-2.8h-18.2v-6.8h22.6c2.5,0,4.8-.9,6.6-2.7,1.8-1.8,2.8-4.1,2.8-6.6s-.9-4.8-2.7-6.6c-1.8-1.8-4.1-2.7-6.6-2.7h-32c-2.5,0-4.8.9-6.6,2.7-1.8,1.8-2.7,4.1-2.7,6.6v50.9c0,2.5.9,4.8,2.7,6.6,1.8,1.8,4.1,2.7,6.6,2.7Z"/>
    <path class="st0" d="M573.1,372.1c-1-.9-2.1-1.6-3.4-2-2.5-.8-5-.7-7.4.3-1.3.6-2.5,1.5-3.5,2.6-2.6,3-5.6,5.2-8.9,6.8-3.3,1.5-6.8,2.3-10.5,2.3s-7.1-.8-10.3-2.3c-3.2-1.5-6.1-3.6-8.6-6.3-2.4-2.6-4.4-5.8-5.8-9.4-1.4-3.6-2.1-7.5-2.1-11.6s.7-7.9,2.1-11.5c1.4-3.6,3.4-6.7,5.8-9.4,2.4-2.6,5.3-4.8,8.6-6.3,3.2-1.5,6.6-2.3,10.3-2.3s7.2.8,10.5,2.3c3.3,1.6,6.3,3.9,8.9,6.8,1,1.2,2.2,2,3.6,2.6,2.4,1,4.9,1.1,7.4.3,1.2-.4,2.3-1.1,3.3-2,2-1.8,3.2-4.1,3.4-6.8.2-2.7-.6-5.2-2.4-7.3-4.4-5.1-9.6-9.1-15.6-11.9-6-2.8-12.3-4.2-18.9-4.2s-12.6,1.3-18.3,4c-5.7,2.6-10.7,6.2-14.9,10.7-4.2,4.5-7.5,9.7-10,15.7-2.4,6-3.7,12.4-3.7,19.2s.6,8.9,1.6,13.1c1.1,4.2,2.7,8.1,4.7,11.8,2,3.7,4.5,7,7.3,10,2.9,3,6,5.6,9.5,7.7,3.5,2.1,7.2,3.8,11.2,5,4,1.2,8.2,1.8,12.5,1.8,6.6,0,12.9-1.4,18.9-4.2,6-2.8,11.2-6.7,15.6-11.8,1.7-2.1,2.6-4.6,2.4-7.2-.2-2.7-1.3-5-3.4-6.8Z"/>
    <path class="st0" d="M627.8,309.7c-.7-1.9-2-3.5-3.6-4.7-1.7-1.2-3.7-1.9-5.8-1.9s-4.1.6-5.8,1.9c-1.6,1.2-2.8,2.8-3.6,4.7l-28.7,78.9c-.5,1.3-.7,2.7-.6,4,0,1.3.4,2.5.9,3.6.5,1.2,1.3,2.2,2.3,3.1.9.9,2.1,1.5,3.3,2,.6.3,1.3.5,1.9.5.5,0,1.1.1,1.6.1,2,0,3.9-.6,5.6-1.7,1.7-1.2,3-2.8,3.7-4.8l6.3-17.3h26l6.3,17.3c.7,2,2,3.7,3.7,4.8,1.7,1.1,3.6,1.7,5.6,1.7s2.5-.2,3.6-.7c1.2-.5,2.3-1.2,3.3-2,1-.9,1.7-1.9,2.3-3.1.5-1.1.8-2.4.9-3.7,0-1.3-.1-2.7-.6-4l-28.7-79ZM624.7,359.6h-12.5l6.2-17.2,6.3,17.2Z"/>
    <path class="st0" d="M721.6,303.2h-47.8c-2.7,0-5.2,1-7.1,2.9-1.9,1.9-2.9,4.3-2.9,7.1v79c0,2.7,1,5.2,2.9,7.1,1.9,1.9,4.3,2.9,7.1,2.9s5.2-1,7.1-2.9c1.9-1.9,3-4.4,3-7.1v-29.5h31.1c2.7,0,5.2-1,7.1-2.9,1.9-1.9,2.9-4.4,2.9-7.1s-1-5.1-2.9-7c-1.9-1.9-4.4-2.9-7.1-2.9h-31.1v-19.5h37.7c2.7,0,5.2-1,7.1-2.9,1.9-1.9,2.9-4.3,2.9-7.1s-1-5.2-2.9-7.1c-1.9-1.9-4.3-2.9-7.1-2.9Z"/>
    <path class="st0" d="M795.2,323.2c2.7,0,5.2-1,7.1-2.9,1.9-1.9,2.9-4.3,2.9-7.1s-1-5.2-2.9-7.1c-1.9-1.9-4.3-2.9-7.1-2.9h-47.8c-2.7,0-5.2,1-7.1,2.9-1.9,1.9-2.9,4.3-2.9,7.1v79c0,2.7,1,5.2,2.9,7.1,1.9,1.9,4.3,2.9,7.1,2.9h47.8c2.7,0,5.2-1,7.1-2.9,1.9-1.9,2.9-4.3,2.9-7.1s-1-5.2-2.9-7.1c-1.9-1.9-4.4-3-7.1-3h-37.7v-19.4h31.1c2.7,0,5.2-1,7.1-2.9,1.9-1.9,2.9-4.4,2.9-7.1s-1-5.1-2.9-7c-1.9-1.9-4.4-2.9-7.1-2.9h-31.1v-19.5h37.7Z"/>
  </g>
</svg>