<?xml version="1.0" encoding="UTF-8"?>
<svg xmlns="http://www.w3.org/2000/svg" version="1.1" viewBox="0 0 21 21">
  <!-- Generator: Adobe Illustrator 29.4.0, SVG Export Plug-In . SVG Version: 2.1.0 Build 29)  -->
  <defs>
    <style>
      .st0 {
        fill: #fff;
        fill-rule: evenodd;
      }

      .st1 {
        fill: none;
      }
    </style>
  </defs>
  <g id="Layer_1" image-rendering="optimizeQuality" shape-rendering="geometricPrecision" text-rendering="geometricPrecision">
    <g id="_图层_x5F_1" data-name="图层_x5F_1">
      <path class="st1" d="M0,0h21v21H0V0Z"/>
      <path class="st0" d="M10.5,1.3c5.1,0,9.2,4.1,9.2,9.2s-4.1,9.2-9.2,9.2S1.3,15.6,1.3,10.5,5.4,1.3,10.5,1.3ZM8.6,13.5l-2.2-2.3c-.4-.4-.4-1,0-1.4.4-.4,1-.4,1.4,0l1.6,1.6,3.9-3.9c.4-.4,1-.4,1.4,0,.4.4.4,1,0,1.4l-4.6,4.6c-.4.4-1,.4-1.4,0,0,0,0,0,0,0Z"/>
    </g>
  </g>
</svg>