<?xml version="1.0" encoding="UTF-8"?>
<svg id="Layer_1" xmlns="http://www.w3.org/2000/svg" version="1.1" viewBox="0 0 32 32">
  <!-- Generator: Adobe Illustrator 29.4.0, SVG Export Plug-In . SVG Version: 2.1.0 Build 29)  -->
  <defs>
    <style>
      .st0 {
        fill: #010101;
        fill-rule: evenodd;
      }
    </style>
  </defs>
  <path class="st0" d="M16,7.77c4.55,0,8.23,3.69,8.23,8.23s-3.69,8.23-8.23,8.23-8.23-3.69-8.23-8.23,3.69-8.23,8.23-8.23h0ZM22.24,16c0,.71-.58,1.29-1.29,1.29s-1.29-.58-1.29-1.29.58-1.29,1.29-1.29,1.29.58,1.29,1.29ZM16,9.76c-.71,0-1.29.58-1.29,1.29s.58,1.29,1.29,1.29,1.29-.58,1.29-1.29-.58-1.29-1.29-1.29ZM16,14.52c-.82,0-1.48.66-1.48,1.48s.66,1.48,1.48,1.48,1.48-.66,1.48-1.48-.66-1.48-1.48-1.48h0ZM9.76,16c0,.71.58,1.29,1.29,1.29s1.29-.58,1.29-1.29-.58-1.29-1.29-1.29-1.29.58-1.29,1.29ZM16,22.24c.71,0,1.29-.58,1.29-1.29s-.58-1.29-1.29-1.29-1.29.58-1.29,1.29.58,1.29,1.29,1.29ZM23.84,8.16c-.33-.33-.87-.33-1.21,0l-.57.57s-.02.03-.02.06c0,.02,0,.04.03.05.39.33.76.7,1.09,1.09.01.02.03.03.05.03s.04,0,.06-.02l.57-.57c.33-.33.33-.87,0-1.21ZM16,4.92c.47,0,.85.38.85.85v.81s0,.04-.02.06c-.02.01-.04.02-.06.02-.52-.04-1.02-.04-1.54,0-.02,0-.04,0-.06-.02-.02-.01-.02-.03-.02-.06v-.81c0-.47.38-.85.85-.85ZM8.16,8.16c-.33.33-.33.87,0,1.21l.57.57s.03.02.06.02c.02,0,.04,0,.05-.03.33-.39.7-.76,1.09-1.09.02-.01.03-.03.03-.05s0-.04-.02-.06l-.57-.57c-.33-.33-.87-.33-1.21,0ZM4.92,16c0-.47.38-.85.85-.85h.81s.04,0,.06.02.02.04.02.06c-.04.52-.04,1.02,0,1.54,0,.02,0,.04-.02.06s-.03.02-.06.02h-.81c-.47,0-.85-.38-.85-.85h0ZM8.16,23.84c.33.33.87.33,1.21,0l.57-.57s.02-.03.02-.06c0-.02,0-.04-.03-.05-.39-.33-.76-.7-1.09-1.09-.01-.02-.03-.03-.05-.03s-.04,0-.06.02l-.57.57c-.33.33-.33.87,0,1.21h0ZM16,27.08c-.47,0-.85-.38-.85-.85v-.81s0-.04.02-.06.04-.02.06-.02c.52.04,1.02.04,1.54,0,.02,0,.04,0,.06.02s.02.03.02.06v.81c0,.47-.38.85-.85.85ZM23.84,23.84c-.33.33-.87.33-1.21,0l-.57-.57s-.02-.03-.02-.06c0-.02,0-.04.03-.05.39-.33.76-.7,1.09-1.09.01-.02.03-.03.05-.03s.04,0,.06.02l.57.57c.33.33.33.87,0,1.21ZM27.08,16c0,.47-.38.85-.85.85h-.81s-.04,0-.06-.02-.02-.04-.02-.06c.04-.52.04-1.02,0-1.54,0-.02,0-.04.02-.06.01-.02.03-.02.06-.02h.81c.47,0,.85.38.85.85h0Z"/>
</svg>