<?xml version="1.0" encoding="UTF-8"?>
<svg id="Layer_1" xmlns="http://www.w3.org/2000/svg" version="1.1" viewBox="0 0 32 32">
  <!-- Generator: Adobe Illustrator 29.4.0, SVG Export Plug-In . SVG Version: 2.1.0 Build 29)  -->
  <defs>
    <style>
      .st0 {
        fill: #010101;
      }
    </style>
  </defs>
  <path class="st0" d="M27.82,23.78l-3.1-14.73c-.29-1.36-1.51-2.35-2.9-2.35h-11.64c-1.39,0-2.61.99-2.9,2.35l-3.1,14.73c-.14.69.29,1.36.98,1.5.69.14,1.36-.3,1.5-.98l.5-2.38h2.48l-.39,1.85c-.14.69.29,1.36.98,1.5.69.14,1.36-.29,1.5-.98l3.17-15.07h2.17l3.17,15.07c.14.69.82,1.13,1.5.98.69-.14,1.13-.82.98-1.5l-.39-1.85h2.48l.5,2.38c.14.68.82,1.13,1.5.98.69-.14,1.13-.82.98-1.5h0ZM10.9,16h-2.48l.53-2.54h2.48l-.53,2.54ZM7.52,20.23l.53-2.54h2.48l-.53,2.54h-2.48ZM11.79,11.77h-2.48l.46-2.2c.04-.19.22-.34.41-.34h2.14l-.53,2.54ZM20.57,13.46h2.48l.53,2.54h-2.48l-.53-2.54ZM21.82,9.23c.2,0,.37.14.41.34l.46,2.2h-2.48l-.53-2.54h2.14ZM21.99,20.23l-.53-2.54h2.48l.53,2.54h-2.48Z"/>
</svg>