<?xml version="1.0" encoding="UTF-8"?>
<svg id="Layer_1" xmlns="http://www.w3.org/2000/svg" version="1.1" viewBox="0 0 32 32">
  <!-- Generator: Adobe Illustrator 29.4.0, SVG Export Plug-In . SVG Version: 2.1.0 Build 29)  -->
  <defs>
    <style>
      .st0 {
        fill: #010101;
        fill-rule: evenodd;
      }
    </style>
  </defs>
  <path class="st0" d="M9.81,6.48c.18-.74.84-1.28,1.64-1.28.7,0,1.3.43,1.56,1.04,0,.01,0,.03,0,.04,0,.01-.02.02-.04.02-.97.03-2.08.06-3.1.23-.02,0-.03,0-.04-.01-.01-.01-.01-.03-.01-.04ZM11.22,17l-1.55,1.01c-.73.47-.9,1.45-.38,2.14l.92,1.23c.35.46,1.1,0,.84-.52l-.48-.96c-.12-.25,0-.54.28-.62l1.4-.38s.03,0,.05.01.02.03.01.05c-.32,1.15-.63,2.29-.78,3.33-.13.89-.05,1.4-.06,2.24,0,.63-.11,1.2-.1,1.89,0,.46.38.82.85.82s.84-.38.84-.84c0-.53-.07-.78.48-1.08.46-.25,1.13-.25,1.58,0,.55.3.48.54.48,1.08,0,.46.37.84.85.84.45,0,.83-.37.84-.82.01-.69-.1-1.26-.1-1.89,0-.84.08-1.34-.06-2.24-.16-1.04-.46-2.18-.78-3.33,0-.02,0-.03.01-.05s.03-.02.05-.01l1.4.38c.27.07.4.37.28.62l-.48.96c-.26.51.49.98.84.52l.92-1.23c.26-.34.35-.73.28-1.15s-.29-.76-.65-.99l-1.37-.86s-.03,0-.04,0c-1.12.38-2.63.54-3.71.54-.93,0-1.82-.24-2.61-.69-.02,0-.03,0-.05,0h0ZM24.74,21.89s.04-.02.06,0c.02.01.03.03.02.05-.99,3.65-3.55,4.34-6.83,3.66-.02,0-.04-.02-.04-.04-.03-.35-.07-.69-.07-1.04,0-.29.01-.59.02-.88,0-.02,0-.03.02-.04.01,0,.03-.01.04,0,2.29.81,4.55.3,6.77-1.71h0ZM12.58,12.24c.11.16.06.38-.1.48-.16.11-.38.06-.48-.1-.16-.25-.52-.25-.68,0-.11.16-.32.21-.48.1-.16-.11-.21-.32-.1-.48.44-.67,1.42-.67,1.86,0ZM15.53,12.24c.11.16.06.38-.1.48-.16.11-.38.06-.48-.1-.16-.25-.52-.25-.68,0-.11.16-.32.21-.48.1-.16-.11-.21-.32-.1-.48.44-.67,1.42-.67,1.86,0ZM16.05,6.35c-.56,0-1.09.14-1.58.39-.32.16-.63.24-.99.25-1.54.05-3.56.08-4.82.59-.73.29-1.48.81-1.48,1.63,0,.89.48,1.01,1.25,1.15.41.07.84.12,1.27.16.02,0,.03,0,.04.02,0,.01,0,.03,0,.04-.26.57-.4,1.21-.4,1.88,0,2.48,2,4.5,4.48,4.54.93.12,3.6-.29,4.66-.91.24-.14.44-.28.57-.42.81-.85,1.28-2.16,1.28-3.86,0-2.92-1.91-5.45-4.27-5.45h0ZM15.68,15.88c.99-1.49,1.56-3.57.11-4.8-.69-.59-1.32-.56-2.15-.56h-3.12s-.03,0-.04.02c-.86,1.52-.59,3.43.64,4.66,1.19,1.19,3.03,1.49,4.54.7,0,0,.01,0,.02-.02h0ZM16.7,8.38c-.52.7-1.47.7-1.99,0-.01-.02-.01-.04,0-.06.52-.7,1.47-.7,1.99,0,.01.02.01.04,0,.06ZM13.25,6.23c.27-.73.97-1.26,1.79-1.26.55,0,1.05.24,1.4.61.01.01.02.03,0,.05s-.03.03-.05.03c-.78-.07-1.55.09-2.25.45-.33.17-.53.17-.86.18-.02,0-.03,0-.04-.02,0-.01-.01-.03,0-.04h0ZM17.07,5.72c.27-.56.85-.95,1.52-.95.93,0,1.69.76,1.69,1.69,0,.46-.19.88-.49,1.19,0,.01-.02.01-.04.01-.01,0-.03,0-.03-.02-.65-.88-1.54-1.57-2.61-1.85-.01,0-.02-.01-.03-.03s0-.03,0-.04h0ZM19.94,7.82c1.07-.06,1.99.79,1.99,1.88,0,.66-.34,1.24-.85,1.57-.01,0-.03.01-.05,0-.02,0-.02-.02-.03-.04-.09-1.18-.45-2.35-1.1-3.34,0-.01-.01-.03,0-.05s.02-.02.04-.03h0ZM21.09,11.77c.49.27.82.79.82,1.39,0,.82-.62,1.49-1.41,1.58-.02,0-.03,0-.04-.02-.01-.01-.01-.03,0-.05.38-.9.57-1.89.57-2.87,0-.02,0-.03.02-.04.01,0,.03,0,.05,0h0ZM20.25,15.27c.16.59-.27,1.2-.89,1.24-.02,0-.04,0-.05-.03,0-.02,0-.04,0-.05.33-.35.61-.75.84-1.17,0-.02.03-.03.05-.02.02,0,.03.02.04.03h0ZM8.49,6.29c.3,0,.58.1.8.28.01.01.02.03.02.05s-.02.03-.03.04c-.72.17-1.45.45-2,.93-.01.01-.03.02-.05,0s-.03-.02-.03-.04c.02-.69.59-1.25,1.3-1.25Z"/>
</svg>