<?xml version="1.0" encoding="UTF-8"?>
<svg id="Layer_1" xmlns="http://www.w3.org/2000/svg" version="1.1" viewBox="0 0 32 32">
  <!-- Generator: Adobe Illustrator 29.4.0, SVG Export Plug-In . SVG Version: 2.1.0 Build 29)  -->
  <defs>
    <style>
      .st0 {
        fill: #010101;
      }
    </style>
  </defs>
  <path class="st0" d="M21.9,20.64c-1.6-.34-3.02.88-3.02,2.43,0,.23-.19.41-.41.41s-.41-.18-.41-.41v-11.8h-9.15c-.41,0-.74.33-.74.74v12.81c0,.41.33.74.74.74h12.46c1.54,0,2.77-1.42,2.43-3.02-.2-.94-.96-1.7-1.9-1.89Z"/>
  <path class="st0" d="M23.85,20.88v-11.95c0-1.37-1.12-2.48-2.49-2.48s-2.49,1.11-2.49,2.48v11.95c.61-.69,1.5-1.13,2.49-1.13s1.88.43,2.49,1.13Z"/>
</svg>