<?xml version="1.0" encoding="UTF-8"?>
<svg id="Layer_1" xmlns="http://www.w3.org/2000/svg" version="1.1" viewBox="0 0 32 32">
  <!-- Generator: Adobe Illustrator 29.4.0, SVG Export Plug-In . SVG Version: 2.1.0 Build 29)  -->
  <path d="M16,15.46c1.32-1.66,3.36-2.72,5.64-2.72.14,0,.27.01.41.02.03-.24.05-.48.05-.72,0-3.36-2.74-6.1-6.1-6.1s-6.1,2.74-6.1,6.1c0,.24.02.48.05.72.14,0,.27-.02.41-.02,2.28,0,4.32,1.07,5.64,2.72Z"/>
  <path d="M27.74,19.96c0-3.36-2.74-6.1-6.1-6.1-2.06,0-3.87,1.02-4.98,2.59.58,1.04.92,2.24.92,3.51s-.34,2.47-.92,3.51c1.11,1.56,2.92,2.59,4.98,2.59,3.36,0,6.1-2.74,6.1-6.1Z"/>
  <path d="M16.46,19.96c0-3.36-2.74-6.1-6.1-6.1s-6.1,2.74-6.1,6.1,2.74,6.1,6.1,6.1,6.1-2.74,6.1-6.1Z"/>
</svg>