<?xml version="1.0" encoding="UTF-8"?>
<svg id="Layer_1" xmlns="http://www.w3.org/2000/svg" version="1.1" viewBox="0 0 32 32">
  <!-- Generator: Adobe Illustrator 29.4.0, SVG Export Plug-In . SVG Version: 2.1.0 Build 29)  -->
  <defs>
    <style>
      .st0 {
        fill: #010101;
      }
    </style>
  </defs>
  <path class="st0" d="M7.84,13.75c-.2.41-.21.87,0,1.3.91,1.88,5.33,2.41,7.5,2.47.42.01.86.01,1.31,0,2.13-.06,6.59-.57,7.5-2.47.2-.41.21-.87,0-1.3-.91-1.89-5.35-2.41-7.5-2.47-.44-.01-.89-.01-1.31,0-2.13.06-6.59.57-7.5,2.47h0Z"/>
  <path class="st0" d="M25.73,13.75h1.35c-.63-3.03-5.37-4.91-10.43-5.07v1.3c4.76.15,8.41,1.86,9.08,3.77Z"/>
  <path class="st0" d="M6.26,13.75h-1.35c.63-3.03,5.37-4.91,10.43-5.07v1.3c-4.76.15-8.41,1.86-9.08,3.77Z"/>
  <path class="st0" d="M27.09,15.05h-1.36c-.3.86-1.21,1.69-2.59,2.36-1.79.87-4.12,1.34-6.48,1.41v1.3c.76-.03,1.5-.09,2.23-.19,0,0,0,0,0,0v1.5c0,.32-.26.59-.59.59h-4.59c-.33,0-.59-.26-.59-.59v-1.49c.74.1,1.48.16,2.23.17v-1.3c-2.37-.07-4.69-.54-6.48-1.41-1.38-.67-2.29-1.5-2.59-2.36h-1.36c.07.35.21.69.4,1.02,0,0,0,0,0,0v4.61c0,1.1,1.34,1.65,2.12.87l2.38-2.36c.64.22,1.31.4,2,.54,0,0,0,0,0,0v1.71c0,1.04.85,1.89,1.9,1.89h4.59c1.05,0,1.9-.85,1.9-1.89v-1.72c.69-.14,1.36-.32,1.99-.53l2.38,2.37c.78.77,2.12.23,2.12-.87v-4.58c.19-.33.33-.68.4-1.05h0ZM6.62,20.53v-2.99c.56.45,1.21.83,1.87,1.13l-1.87,1.86ZM23.51,18.67c.71-.32,1.34-.69,1.87-1.11,0,0,0,0,0,0v2.97l-1.87-1.86Z"/>
</svg>