<?xml version="1.0" encoding="UTF-8"?>
<svg id="Layer_1" xmlns="http://www.w3.org/2000/svg" version="1.1" viewBox="0 0 32 32">
  <!-- Generator: Adobe Illustrator 29.4.0, SVG Export Plug-In . SVG Version: 2.1.0 Build 29)  -->
  <defs>
    <style>
      .st0 {
        fill: #010101;
      }
    </style>
  </defs>
  <path class="st0" d="M16.48,19.37v6.29l10.01-5.86v-6.29l-10.01,5.86Z"/>
  <path class="st0" d="M5.51,19.79l10.01,5.86v-6.29l-10.01-5.86v6.29Z"/>
  <path class="st0" d="M25,12.12s-.11.11-.21.11c-.6.54-1.52.42-2.24.75-3.32.75-6.78-2.28-3.09-3.94l-.32-.32c-1.74,1.18-4.54,1.38-6.29,0l-.43.21s.11,0,.11.11c.11.11.21.11.32.21.11,0,.11.11.21.11.11.11.21.21.21.32.18.14.3.35.43.53,0,.11.11.11.11.11.46,2.17-3.3,3.22-5.33,2.34-.18.31-.59-.03-.75-.11-.23.02-.44-.2-.64-.32,0,0-.11,0-.11-.11l-1.07.53,10.01,5.86,10.01-5.86-.96-.53ZM15.95,16.38c-4.9.1-4.83-4.61,0-4.58,4.8-.11,4.99,4.71,0,4.58Z"/>
  <path class="st0" d="M15.95,12.87c-1.6,0-2.77.64-2.77,1.28s1.17,1.28,2.77,1.28,2.77-.64,2.77-1.28c.11-.64-1.17-1.28-2.77-1.28Z"/>
  <path class="st0" d="M21.72,9.65c-1.6,0-2.77.64-2.77,1.28s1.17,1.28,2.77,1.28,2.77-.64,2.77-1.28c.11-.64-1.17-1.28-2.77-1.28Z"/>
  <path class="st0" d="M15.86,6.35c-1.6,0-2.77.64-2.77,1.28s1.17,1.28,2.77,1.28,2.77-.64,2.77-1.28c.11-.64-1.17-1.28-2.77-1.28Z"/>
  <path class="st0" d="M10.05,9.57c-1.6,0-2.77.64-2.77,1.28s1.17,1.28,2.77,1.28,2.77-.64,2.77-1.28c.11-.64-1.17-1.28-2.77-1.28Z"/>
</svg>