<?xml version="1.0" encoding="UTF-8"?>
<svg id="Layer_1" xmlns="http://www.w3.org/2000/svg" version="1.1" viewBox="0 0 32 32">
  <!-- Generator: Adobe Illustrator 29.4.0, SVG Export Plug-In . SVG Version: 2.1.0 Build 29)  -->
  <defs>
    <style>
      .st0 {
        fill: #010101;
      }
    </style>
  </defs>
  <path class="st0" d="M5.27,24.74h-1.99c-.44,0-.79-.36-.79-.79s.36-.79.79-.79h1.99c3.06,0,5.81-1.83,7.01-4.64l4.58-10.78c.17-.4.64-.59,1.04-.42s.59.64.42,1.04l-.88,2.07h4.63l1.15-2.7c.29-.68,1.28-.63,1.49.08l4.77,15.9c.13.42-.11.86-.53.99s-.86-.11-.99-.53l-.55-1.82h-3.9l.41,1.36c.13.42-.11.86-.53.99-.42.13-.86-.11-.99-.53l-1.83-6.12-.46,1.08c-1.44,3.4-4.78,5.61-8.47,5.61h-5.56c-.25-.01-.52,0-.79,0h0ZM22.11,14.41l-.58,1.36.31,1.02h3.9l-.72-2.38h-2.92ZM22.79,12.82h1.76l-.73-2.43-1.03,2.43ZM22.31,18.38l.72,2.38h3.9l-.72-2.38h-3.9Z"/>
</svg>