<?xml version="1.0" encoding="UTF-8"?>
<svg id="Layer_1" xmlns="http://www.w3.org/2000/svg" version="1.1" viewBox="0 0 1080 1080">
  <!-- Generator: Adobe Illustrator 29.1.0, SVG Export Plug-In . SVG Version: 2.1.0 Build 142)  -->
  <defs>
    <style>
      .st0 {
        fill: #fff;
      }
    </style>
  </defs>
  <path class="st0" d="M1023.8,741c-3.8,78-21.6,147.1-78.6,204.2-57.1,57.1-126.2,74.8-204.2,78.6-67.2,3.8-133.8,3.2-201,3.2s-133.8.6-201-3.2c-78-3.8-147.1-21.6-204.2-78.6-57.1-57.1-74.8-126.2-78.6-204.2-3.8-67.2-3.2-133.8-3.2-201s-.6-133.8,3.2-201c3.8-78,21.6-147.1,78.6-204.2,57.1-57.1,126.2-74.8,204.2-78.6,67.2-3.8,133.8-3.2,201-3.2s133.8-.6,201,3.2c78,3.8,147.1,21.6,204.2,78.6,57.1,57.1,74.8,126.2,78.6,204.2,3.8,67.2,3.2,133.8,3.2,201s.6,133.8-3.2,201ZM252.7,160.2c-22.2,8.9-38.7,19.7-55.8,36.8-17.1,17.1-27.9,33.6-36.8,55.8-25.4,64-19.7,216.2-19.7,287.3s-5.7,223.2,19.7,287.3c8.9,22.2,19.7,38.7,36.8,55.8,17.1,17.1,33.6,27.9,55.8,36.8,64,25.4,216.2,19.7,287.3,19.7s223.2,5.7,287.3-19.7c22.2-8.9,38.7-19.7,55.8-36.8s27.9-33.6,36.8-55.8c25.4-64,19.7-216.2,19.7-287.3s5.7-223.2-19.7-287.3c-8.9-22.2-19.7-38.7-36.8-55.8s-33.6-27.9-55.8-36.8c-64-25.4-216.2-19.7-287.3-19.7s-223.2-5.7-287.3,19.7ZM540,789.8c-138.2,0-249.8-111.6-249.8-249.8s111.6-249.8,249.8-249.8,249.8,111.6,249.8,249.8-111.6,249.8-249.8,249.8ZM540,377.7c-89.4,0-162.3,72.9-162.3,162.3s72.9,162.3,162.3,162.3,162.3-72.9,162.3-162.3-72.9-162.3-162.3-162.3ZM800,338.3c-32.3,0-58.3-26-58.3-58.3s26-58.3,58.3-58.3,58.3,26,58.3,58.3-26,58.3-58.3,58.3Z"/>
</svg>