<?xml version="1.0" encoding="UTF-8"?>
<svg id="Layer_1" xmlns="http://www.w3.org/2000/svg" version="1.1" viewBox="0 0 1080 248">
  <!-- Generator: Adobe Illustrator 29.1.0, SVG Export Plug-In . SVG Version: 2.1.0 Build 142)  -->
  <defs>
    <style>
      .st0 {
        fill: #fdc313;
      }

      .st1 {
        fill: #ffc624;
      }

      .st2 {
        fill: #d3232f;
      }

      .st3 {
        fill: #4665b0;
      }

      .st4 {
        fill: #fff;
      }

      .st5 {
        fill: none;
      }

      .st6 {
        fill: #ec2b37;
      }

      .st7 {
        fill: #ee4443;
      }

      .st8 {
        fill: #2e4c5a;
      }

      .st9 {
        fill: #f177ae;
      }

      .st10 {
        fill: #c4e8fa;
      }

      .st11 {
        fill: #e2f4fd;
      }

      .st12 {
        fill: #fac615;
      }

      .st13 {
        fill: #82a9bb;
      }

      .st14 {
        fill: #24c1e7;
      }

      .st15 {
        fill: #fffbf0;
      }
    </style>
  </defs>
  <path class="st5" d="M906.1,121.2c-5.3-1-9.9-1.2-13.6-.6-4.7.7-6.1,1.7-6.1,1.8s-1.2,1-2.8,4.8c-.3.7-.2,2.8,1.4,6.4,1.5,1.4,2.9,2.3,4.3,2.7.8.2,3.2.7,8.2-.4,1.8-.4,3.5-1.6,5.3-3.7,2.7-3.2,10.1-9.8,22.9-6.2-.2-3.3-.5-6.8-.7-10.5-4.7,5-11.3,7.2-18.9,5.8Z"/>
  <path class="st5" d="M320.2,154.2c-.9-1.8-3-5.6-7.8-13.3.5,5.3.8,10.8,1,16.5,0,3,0,5.7-.3,8.1,4.9-6.2,6.6-9.6,7.2-11.2Z"/>
  <path class="st5" d="M665.3,96c-7.7-1.4-14.5-1.7-20.1-.9-5.4.8-10.2,2.5-14.6,5.2-3.6,2.2-6.1,5.2-7.7,9-1.2,2.9-.1,7.9,3,14.1,2.1,4.1,5.3,6.6,10.3,8,6.2,1.7,12,2,17.9.7,2.9-.6,6.3-3.5,9.7-8.3,6.6-9.3,15.9-13,26.1-10.8,0-6.2,0-12.8,0-19.7,0-2.3,0-4.5.1-6.6-5.4,7.8-14.2,11.2-24.8,9.3Z"/>
  <path class="st5" d="M568.2,83.9c-1.7,0-3.4-.2-5-.5,1.1,2.4,2.2,5,3.2,7.6.6-2.4,1.3-4.8,2.2-7.1-.1,0-.3,0-.4,0Z"/>
  <path class="st15" d="M108.2,104.3c3.1-.4,5.9-.8,8.4-1.2,2.5-.4,5.2-1.3,8.1-2.9,2.9-1.6,4.9-3.3,6-5.3,1.1-1.9,1.6-4.1,1.5-6.4,0-2.3-1.2-4.3-3.3-5.8-2.1-1.5-4.3-2.3-6.7-2.2-2.4,0-6.3.4-11.9,1.2-5.6.7-8.4,2.9-8.5,6.6,0,3.7.1,7.4.7,11.1.6,3.7,2.4,5.4,5.5,5Z"/>
  <path class="st15" d="M258.6,131.1h-2.8c-5.5,0-9.8,4.1-12.9,12.2v2.3c1.4,7.4,5.2,11.1,11.3,11.1h1.6c8.3-2,12.5-6.3,12.5-12.9v-1.5c-1.6-7.4-4.8-11.2-9.7-11.2Z"/>
  <path class="st15" d="M392.7,72.4h-4.5c-3.8,0-8.9-.2-15.1-.5l-2.9-.2-9,4.8-1.5,3.4c-4.3,9.8-7.6,17-10.1,22.1-15.5-23.7-17.3-24.9-19.5-26.3l-2.5-1.6h-5.5l-1.9.8c-11.6,4.7-19.9,8.7-24.9,13-3.3-3.1-7.2-5.8-11.8-7.8-8.9-4-20.1-5.4-34.3-4.2-14,1.2-24.6,4.5-32.3,10.3-.1-9.3-.2-19.2-.3-29.6v-.2c-.3-10.4-6.7-18.1-17.2-20.5-7.3-1.7-14.4-1.9-20.9-.5l-2.2.5-1.8,1.4c-4.4,3.3-7.8,8.6-10.1,16.3-2.9-2.6-6.2-5.1-10.1-7.5l-.7-.4c-9-4.7-20.3-7.1-33.4-7.1h-1.5c-20,0-40.3,5.5-60.5,16.4l-.9.5-.8.6c-7.2,5.8-8.7,12.7-8.7,17.4,0,26.5,3.3,54.7,9.9,84v.2c1.5,6,5.3,21.7,17.4,22.8,3,.6,9.4,1.3,27.1,2.3h.6c10.1,0,16.8-6.7,16.8-16.8v-1.2c-.9-7.4-1.6-13.8-2-19,17.4-2.7,31.6-8.6,42.4-17.8,0,11.3.2,20.9.3,28.7.3,17.1,9.4,27.4,24.5,27.4h7.6c0,0,0,0,0,0,10.3,0,18.3-4.2,23-11.6,8.1,8.1,17.4,12.3,27.7,12.3h4.5c4.5,0,10.4-1.4,18.2-4.2,4.3,3.9,9,5.3,12.8,5.8,1.9.2,3.8.3,5.8.3,4,0,8.2-.4,12.6-1.3.5-.1,1.1-.2,1.7-.4v2.2c0,2.7.7,5.5,2.2,8.3l.3.6.4.5c12,17.2,21.6,24.9,31.2,24.9h1.4c7.9,0,15.1-6.3,26.7-23.3l.4-.7c25.8-45.2,41.3-80.5,47.3-107.8l.2-1.1v-2.8c0-2.9-1.2-12.3-16.2-13.3ZM106.3,136.4v.4c.4,6.2,1.3,15.9,2.8,29.1,0,4.2-2.1,6.3-6.3,6.3-14.2-.8-23-1.5-26.3-2.2-3.3,0-6.1-4.9-8.5-14.8-6.4-28.7-9.6-55.9-9.6-81.7s1.6-6.7,4.8-9.3c18.7-10.1,37.2-15.2,55.5-15.2h1.5c11.5,0,21,2,28.5,5.9,14.3,8.8,21.4,20.2,21.4,34.1s-3.4,16.5-10.3,24.4c-11.5,13.6-29.3,21.2-53.4,23ZM192.4,173.6h-7.5c-9.3,0-14-5.7-14.2-17.1-.4-15-.4-36-.3-63.1,0-2.5,0-5,.1-7.3,0-.8,0-1.6,0-2.3.9-21.3,4.1-34,9.9-38.3,5.1-1.1,10.5-.9,16.4.4,1.5.3,2.8.8,3.9,1.4.3.2.5.3.8.5,2.8,1.9,4.3,4.8,4.4,8.7.2,23.8.5,44.5,1,62.2,0,2.2.1,4.4.2,6.5.4,14.8.9,27.3,1.5,37.4-2.1,7.3-7.5,10.9-16.1,11ZM279.9,175.9c-4.5-.5-8-3.2-10.7-7.9-10.2,4.2-17.4,6.3-21.6,6.3h-4.5c-7.1,0-13.6-2.8-19.5-8.4-.5-.4-.9-.9-1.3-1.3-.9-.9-1.8-1.9-2.6-3-4-5.6-6-12-6-19.1.7-8.2,4.1-14.6,10.1-19.1,6-4.5,13.6-7.1,22.8-7.8,9.2-.7,17,.8,23.5,4.4.4-3.9-1.3-7.3-5.1-10.2-3.8-2.9-8.5-4-14.2-3.3-5.7.7-11.2,2.3-16.7,5-5.5,2.6-10.3,1.7-14.6-2.8-4.3-4.5-3.3-9.1,2.8-13.9,6.1-4.7,15.3-7.6,27.5-8.6,12.2-1,21.9.1,29.1,3.3,7.2,3.2,12.2,8.2,15,14.8,2.8,6.6,4.9,14.5,6.3,23.7.9,5.8,1.5,11.8,2,18,0,1.3.2,2.5.2,3.8.1,2.5.3,5.1.3,7.8.3,10.5-2.3,16.3-7.9,17.4-5.6,1.1-10.6,1.4-15.1.8ZM313.4,157.3c-.2-5.6-.5-11.2-1-16.5,4.8,7.7,6.9,11.5,7.8,13.3-.6,1.6-2.3,5.1-7.2,11.2.3-2.4.4-5.1.3-8.1ZM398.4,87.4c-5.7,26-21.1,60.9-46.1,104.8-8.5,12.5-14.5,18.7-18,18.7h-1.4c-5.6,0-13.1-6.8-22.6-20.4-.7-1.2-1-2.4-1-3.4v-1.7c14.5-15,21.8-25.8,21.8-32.3s-5.1-10.8-15.3-26.7c-2.3-3.6-4.4-6.8-6.2-9.8-1.8-2.9-3.4-5.6-4.7-7.9-.7-1.2-1.2-2.2-1.8-3.2-.3-.5-.5-1-.7-1.4-1.2-2.3-1.9-4.1-2.3-5.4,0-3,8-7.7,24-14.2h.4c1.7,1.1,9.9,13,24.4,35.8h2.3c3.6-4.9,9.6-17,18-36.3l3.2-1.7c6.4.4,11.7.5,15.7.5h3.7c4.3.3,6.4,1.2,6.4,2.9v1.7Z"/>
  <path class="st15" d="M790.8,145.5h1.8c8.7-3,13.1-9.5,13.1-19.3v-2.3c-1.7-11-5.1-16.5-10.3-16.5h-2.9c-5.8,0-10.3,6.1-13.7,18.2v3.5c1.5,10.9,5.5,16.4,12,16.4Z"/>
  <path class="st15" d="M1024.5,142.1c-6.9-4.6-13.5-10.1-19.7-16.3,18.2-24.6,18.3-27.9,18.5-31.3l.3-5.6-2.1-3c-5.4-7.6-12.2-13.2-20-16.6l-1.8-.8h-1.9c-5.1-.3-10.2,1.6-15.1,5.8l-1.1,1-.8,1.2c-1,1.5-1.9,2.9-2.8,4.2-.8-8.1-1.6-14.9-2.4-20.3-.8-5.5-1.5-9.7-2.1-12.6-.7-2.9-2.7-11.7-11.4-12l-5.5-.3c-7.5-.4-27.3-1.4-32.7,12.3l-.7,1.7-.2,5v.2c.1,8.4.3,16.4.5,23.9-.6-.4-1.2-.8-1.8-1.1-6-3.3-11.7-5.2-17.2-5.8-4.8-.5-9.9-.5-15.2,0-5,.6-9.9,1.5-14.7,2.9-5.7,1.6-11.5,4-17.3,7.1-6.4,3.4-12,8.1-16.5,13.9-.2.3-.4.6-.7.9-11.3-17.1-28.1-26.1-49.5-26.1s-15.5,1.4-22.6,4.2l-.6.2c-8.7,4-15.5,8.6-20.7,13.6-.2-10-.3-20.7-.4-32v-.2c-.3-10.4-6.7-18.1-17.2-20.5-7.3-1.7-14.4-1.9-20.9-.5l-2.2.5-1.8,1.4c-5,3.7-8.5,9.8-10.8,19.2-2.8-5.7-7.3-8.9-10.1-10.4-7.7-4.3-15.2-6.8-22.2-7.5-6.4-.7-13.1-.6-20,.1-6.7.7-13.3,2-19.6,3.8-7.6,2.2-15.3,5.3-23.1,9.4-3.9,2.1-7.6,4.6-11.1,7.4.2-5.9,0-12.1-.3-18.7-.2-5.2-2.4-8.4-4.3-10.1-2.6-2.4-6.1-3.7-9.9-3.6h-.6c-6.5.6-13.7,2.5-21.5,5.7h-.3c-6.3,2.9-9.3,9.3-7.7,16.1.5,2.7,1.2,5.5,1.9,8.2-13.9-13.6-32-20.6-53.6-20.6s-20.3,1.8-29.6,5.4l-.6.3c-32.1,14.7-48.4,37.2-48.4,66.7s4.9,32,14.6,45.3l.4.6c16.5,19.7,35.8,29.6,57.4,29.6h1.5c1.8.1,3.4.2,4.8.2,2.3,0,4.7-.1,7.3-.4h.2c.2,0,.5,0,.7,0,8-.9,15.6-3.1,22.6-6.6,4.6-2,9.3-4.3,14.1-6.9l.6-.4.6-.4c17.7-13.2,28.2-28.8,31.4-46.3.2.5.4,1,.6,1.6,4.4,12.3,11.2,23.3,20.3,32.6,5.1,5.3,10.8,9.7,16.9,13.1,6,3.3,12.2,5.8,18.6,7.5,7.2,2,14.7,3,22.3,3s1.3,0,2,0c6.1,0,12.2-.7,18.2-2,6.7-1.4,13.2-4.2,19.3-8.5h.2c1.5-1.3,3.1-2.5,4.6-3.8,3,11.2,11.3,17.6,23.2,17.6h7.6c0,0,0,0,0,0,12.4,0,21.6-6.1,25.5-16.6,11.2,10.9,24,16.4,38.2,16.4h6.8c8.7,0,19.1-3.4,31.9-10.5l.6-.3.6-.4c7.4-5.5,13.2-11.6,17.3-18.2,2.1,2.9,4.3,5.7,6.8,8.3,3.8,4.1,8.2,7.5,13,10.1,4.5,2.5,9.3,4.4,14.1,5.6,5.5,1.5,11.2,2.3,16.9,2.3s1,0,1.4,0c4.6,0,9.2-.6,13.7-1.5,5.3-1.1,10.4-3.3,15.1-6.7,1.7-1.1,3.3-2.5,5-4h.1c.5-.6,1-1.1,1.6-1.7,3,11.8,7.6,18.4,16,18.8h.8s.8,0,.8,0c7.1-.7,27.4-2.7,31.3-16.3,5.8,5.1,11.8,8.7,18.1,10.8l1.5.5h1.6c.2,0,.4,0,.6,0,12.4,0,20.6-13.4,26.5-25.2l4.1-8.3-7.7-5.1ZM925,115.4c.2,3.7.4,7.1.7,10.5-12.8-3.6-20.2,3-22.9,6.2-1.8,2.1-3.5,3.3-5.3,3.7-5,1.1-7.4.7-8.2.4-1.4-.4-2.8-1.3-4.3-2.7-1.6-3.6-1.7-5.7-1.4-6.4,1.5-3.8,2.7-4.7,2.8-4.8s1.4-1.1,6.1-1.8c3.7-.6,8.3-.4,13.6.6,7.6,1.4,14.2-.8,18.9-5.8ZM690.1,86.7c0,2.1,0,4.3-.1,6.6,0,6.9,0,13.5,0,19.7-10.2-2.2-19.5,1.6-26.1,10.8-3.4,4.8-6.8,7.6-9.7,8.3-5.9,1.3-11.7,1-17.9-.7-5-1.4-8.2-3.9-10.3-8-3.1-6.1-4.2-11.1-3-14.1,1.6-3.9,4.1-6.8,7.7-9,4.4-2.7,9.2-4.4,14.6-5.2,5.6-.8,12.4-.5,20.1.9,10.6,1.9,19.4-1.5,24.8-9.3ZM566.4,91.1c-1-2.6-2.1-5.2-3.2-7.6,1.6.3,3.3.5,5,.5s.3,0,.4,0c-.9,2.3-1.7,4.7-2.2,7.1ZM554.7,42c6.8-2.8,13-4.4,18.5-4.9,2.2,0,3.3,1.2,3.4,3.7.7,11.1.5,21-.4,29.8-.2,1-.9,1.6-2.1,2-4,1.1-7.5,1.2-10.3.2-2-.6-3.2-1.3-3.4-2.2-1.4-4-2.8-8.1-4.1-12.1-1.4-4-2.5-8.1-3.3-12.3-.5-2,0-3.4,1.8-4.2ZM491.1,173.6c-1.5,0-3,0-4.5-.2h-1.8c-18.4,0-34.9-8.6-49.3-25.9-8.4-11.5-12.6-24.6-12.6-39.2,0-25.2,14.1-44.3,42.3-57.2,8.2-3.2,16.8-4.7,25.9-4.7,32.3,0,54.5,17,66.6,50.9,1.1,7.8,1.6,12.5,1.6,14.1,0,18.9-9.4,35.3-28.2,49.3-4.9,2.7-9.5,4.9-13.8,6.8-8,3.9-17,6-26.1,6ZM665.3,168.4c-5.4,1.1-10.8,1.7-16.2,1.7-7.3.2-14.4-.7-21.3-2.6-5.6-1.5-11-3.7-16.3-6.6-5.3-2.9-10.1-6.6-14.4-11.2-8.1-8.3-14.1-18-18-28.9-6.2-16.8-4.3-31.7,6-44.5,5.1-6.5,11.2-11.7,18.3-15.5,7.1-3.8,14.1-6.6,21-8.6,5.8-1.6,11.7-2.7,17.9-3.4,6.2-.7,12.1-.7,17.8-.1,5.6.6,11.7,2.7,18.3,6.3,6.5,3.6,8.5,10,6,19.2-.8,2.9-1.9,5.2-3.3,7.1-.3.4-.6.7-.9,1-3.1,3.2-7.4,4.3-13,3.3-8.9-1.6-16.8-1.9-23.6-.9-6.8,1-13,3.2-18.5,6.6-5.6,3.4-9.5,8.1-12,14.1-2.4,6-1.3,13.6,3.4,22.7,3.4,6.7,9,11.1,16.8,13.3,7.8,2.2,15.4,2.5,22.9.9,3.2-.7,6.3-2.3,9.2-4.8.3-.3.7-.6,1-.9.7-.6,1.3-1.3,2-2,.3-.3.6-.7,1-1.1,1-1.1,1.9-2.3,2.9-3.6,5-7,11.5-8.8,19.4-5.4,4.5,1.9,7,4.6,7.5,7.9,0,.4,0,.8,0,1.2,0,2.4-.8,5-2.5,8-4.6,8-8.1,13.2-10.7,15.6-1.8,1.6-3.6,3.1-5.4,4.4-4.9,3.4-10.1,5.7-15.4,6.8ZM722.4,173.6h-7.5c-9.3,0-14-5.7-14.2-17.1-.4-15-.4-36-.3-63.1.2-27.1,3.5-43,10.1-47.9,5.1-1.1,10.5-.9,16.4.4,2.2.5,4,1.3,5.4,2.5.5.4.9.8,1.3,1.2,1.5,1.8,2.3,4.1,2.4,6.9.4,47.5,1.3,82.9,2.6,106.1-2.1,7.3-7.5,10.9-16.1,11ZM819.8,164.2c-11.1,6.1-20.1,9.2-26.9,9.2h-6.8c-13.4,0-25.4-6.3-35.9-18.8-6.1-8.4-9.2-17.9-9.2-28.5,0-18.3,10.3-32.2,30.8-41.6,5.9-2.3,12.2-3.5,18.8-3.5,23.5,0,39.6,12.4,48.4,37.1.8,5.7,1.2,9.1,1.2,10.3,0,13.7-6.8,25.7-20.5,35.9ZM922.3,160.8c-1.3,1.2-2.6,2.2-3.9,3.1-3.6,2.6-7.3,4.2-11.2,5-3.9.8-7.8,1.2-11.8,1.2-5.2.1-10.4-.5-15.4-1.9-4-1.1-8-2.6-11.8-4.7-3.8-2.1-7.3-4.8-10.4-8.1-5.9-6.1-10.3-13.1-13.1-21-4.5-12.2-3.1-23,4.4-32.3,3.7-4.7,8.1-8.4,13.2-11.2,5.1-2.7,10.2-4.8,15.2-6.2,4.2-1.2,8.6-2,13-2.5,4.5-.5,8.7-.5,12.8,0,4.1.4,8.5,2,13.3,4.6,4.8,2.6,6.1,7.6,4.1,14.9-.9,3.2-2.2,5.6-3.9,7.2-.2.2-.5.4-.8.6-2.1,1.5-4.8,2-8.1,1.4-6.5-1.2-12.2-1.4-17.1-.7-4.9.7-8.5,2-10.9,3.8-2.4,1.8-4.4,4.8-6.2,9.2-1.8,4.3-.9,9.8,2.5,16.5,3.2,3.3,6.5,5.5,9.9,6.6,3.5,1,8,1,13.4-.2,4.1-.9,7.8-3.3,11.1-7.2.4-.5.8-.9,1.3-1.3.2-.2.5-.4.7-.5,3.2-2.2,7.3-2.2,12.6-.1,6.4,2.6,8,6.8,4.6,12.6-3.3,5.8-5.9,9.6-7.8,11.3ZM1001.4,170.2c-9.6-3.3-19.1-11.5-28.5-24.4-1.2-.7-2.1-1-2.9-1.1l-1.1,1.8c0,2.6.3,8.7,1.1,18.3-.2,5.5-7.8,9-22.6,10.4-6.3-.3-10.6-24.9-12.8-73.8,0-2-.2-4-.3-6-.5-12.2-.8-25.8-1.1-40.8v-2.9c1.8-4.4,9.3-6.3,22.5-5.6l5.6.3c2,0,4.8,20.7,8.5,62h.9c.8,0,7-8.6,18.6-26,2.8-2.4,5.4-3.5,7.8-3.4,6.1,2.7,11.4,7,15.7,13.1v2c-.2,1.7-3,6.5-8.6,14.6-1.1,1.6-2.4,3.4-3.7,5.2-2.7,3.7-5.8,8-9.4,12.7,8.5,9.6,17.7,17.7,27.6,24.3-6.5,13.1-12.3,19.5-17.3,19.4Z"/>
  <path class="st6" d="M170.1,88.9c0-13.9-7.1-25.3-21.4-34.1-7.6-3.9-17.1-5.9-28.5-5.9h-1.5c-18.3,0-36.8,5.1-55.5,15.2-3.2,2.6-4.8,5.7-4.8,9.3,0,25.8,3.2,53.1,9.6,81.7,2.4,9.9,5.2,14.8,8.5,14.8,3.3.7,12.1,1.5,26.3,2.2,4.2,0,6.3-2.1,6.3-6.3-1.5-13.1-2.4-22.8-2.8-29.1v-.4c24.1-1.8,42-9.5,53.4-23,6.9-8,10.3-16.1,10.3-24.4ZM102.7,99.3c-.6-3.7-.8-7.4-.7-11.1,0-3.7,2.9-5.8,8.5-6.6,5.6-.7,9.5-1.1,11.9-1.2,2.4,0,4.6.7,6.7,2.2,2.1,1.5,3.2,3.5,3.3,5.8,0,2.4-.4,4.5-1.5,6.4-1.1,1.9-3.1,3.7-6,5.3-2.9,1.6-5.6,2.5-8.1,2.9-2.5.4-5.3.7-8.4,1.2-3.1.4-5-1.2-5.5-5Z"/>
  <path class="st0" d="M208.5,162.6c-.6-10.1-1.1-22.6-1.5-37.4,0-2.1-.1-4.3-.2-6.5-.4-17.7-.8-38.4-1-62.2-.1-3.9-1.6-6.8-4.4-8.7-.3-.2-.5-.3-.8-.5-1.1-.6-2.4-1.1-3.9-1.4-5.9-1.4-11.3-1.5-16.4-.4-5.7,4.3-9,17-9.9,38.3,0,.8,0,1.5,0,2.3,0,2.3-.1,4.8-.1,7.3-.2,27.1,0,48.1.3,63.1.2,11.4,4.9,17.1,14.2,17h7.5c8.6,0,14-3.6,16.1-10.9Z"/>
  <path class="st3" d="M302.9,157.6c0-2.6-.2-5.2-.3-7.8,0-1.3-.2-2.5-.2-3.8-.4-6.3-1.1-12.3-2-18-1.4-9.2-3.5-17.1-6.3-23.7-2.8-6.6-7.8-11.5-15-14.8-7.2-3.2-16.9-4.4-29.1-3.3-12.2,1-21.4,3.9-27.5,8.6-6.1,4.7-7.1,9.4-2.8,13.9,4.3,4.5,9.1,5.5,14.6,2.8,5.5-2.6,11-4.3,16.7-5,5.6-.7,10.4.4,14.2,3.3,3.8,2.9,5.5,6.2,5.1,10.2-6.5-3.6-14.3-5-23.5-4.4-9.2.7-16.8,3.2-22.8,7.8-6,4.5-9.4,10.9-10.1,19.1,0,7.1,2,13.5,6,19.1.9,1.1,1.7,2,2.6,3,.4.5.9.9,1.3,1.3,5.9,5.6,12.4,8.4,19.5,8.4h4.5c4.2,0,11.4-2.1,21.6-6.3,2.6,4.8,6.2,7.4,10.7,7.9,4.5.5,9.5.3,15.1-.8,5.6-1.1,8.2-6.9,7.9-17.4ZM268.3,143.8c0,6.6-4.2,10.9-12.5,12.9h-1.6c-6.1,0-9.9-3.7-11.3-11.1v-2.3c3.2-8.1,7.5-12.2,12.9-12.2h2.8c4.9,0,8.1,3.7,9.7,11.2v1.5Z"/>
  <path class="st9" d="M392,82.8h-3.7c-4,0-9.3-.2-15.7-.5l-3.2,1.7c-8.4,19.3-14.5,31.4-18,36.3h-2.3c-14.6-22.8-22.7-34.7-24.4-35.8h-.4c-16,6.5-24,11.2-24,14.2.4,1.3,1.2,3.1,2.3,5.4.2.5.5.9.7,1.4.5,1,1.1,2.1,1.8,3.2,1.3,2.3,2.9,4.9,4.7,7.9,1.8,2.9,3.9,6.2,6.2,9.8,10.2,15.9,15.3,24.8,15.3,26.7,0,6.5-7.3,17.3-21.8,32.3v1.7c0,1,.3,2.1,1,3.4,9.5,13.6,17,20.4,22.6,20.4h1.4c3.5,0,9.5-6.2,18-18.7,25-43.9,40.4-78.8,46.1-104.8v-1.7c0-1.6-2.1-2.6-6.4-2.9Z"/>
  <path class="st7" d="M530.9,160.8c18.8-14,28.2-30.5,28.2-49.3s-.5-6.3-1.6-14.1c-12.1-34-34.3-50.9-66.6-50.9s-17.7,1.6-25.9,4.7c-28.2,12.9-42.3,32-42.3,57.2s4.2,27.6,12.6,39.2c14.5,17.2,30.9,25.9,49.3,25.9h1.8c1.5.1,3,.2,4.5.2,9.2,0,18.1-2.1,26.1-6,4.3-1.8,8.9-4.1,13.8-6.8ZM491,170.9c-16.9,0-33.4-7-45.5-19.3-16.7-17-21.7-40.5-13.1-61.5,8.1-19.7,26.6-34.5,47.3-37.7,5-.8,9.7-1.2,14.2-1.2s10.6.6,15.3,1.7c17.9,4.1,31.8,17.2,38.3,35.9,2.6,7.4,5.3,18.6,3.6,29.9-1.9,12.8-9,25.5-19.9,35.8-3.9,3.7-8,6.7-12.1,9.1-8.4,4.8-18.1,7.4-28.1,7.4Z"/>
  <path class="st0" d="M556.2,58.4c1.4,4,2.8,8,4.1,12.1.2.9,1.4,1.6,3.4,2.2,2.9,1,6.3,1,10.3-.2,1.2-.4,1.9-1,2.1-2,1-8.8,1.1-18.7.4-29.8,0-2.6-1.2-3.8-3.4-3.7-5.5.5-11.6,2.1-18.5,4.9-1.7.8-2.3,2.2-1.8,4.2.8,4.2,1.9,8.3,3.3,12.3Z"/>
  <path class="st14" d="M680.7,161.6c1.8-1.3,3.6-2.8,5.4-4.4,2.6-2.4,6.1-7.6,10.7-15.6,1.7-3,2.6-5.7,2.5-8,0-.4,0-.8,0-1.2-.5-3.4-3-6-7.5-7.9-7.9-3.4-14.4-1.6-19.4,5.4-.9,1.3-1.9,2.5-2.9,3.6-.3.4-.6.7-1,1.1-.6.7-1.3,1.3-2,2-.3.3-.7.6-1,.9-3,2.5-6.1,4.1-9.2,4.8-7.5,1.6-15.1,1.3-22.9-.9-7.8-2.2-13.4-6.6-16.8-13.3-4.7-9.2-5.8-16.7-3.4-22.7,2.4-6,6.4-10.7,12-14.1,5.6-3.4,11.7-5.6,18.5-6.6,6.8-1,14.6-.7,23.6.9,5.6,1,9.9,0,13-3.3.3-.3.6-.7.9-1,1.4-1.8,2.5-4.2,3.3-7.1,2.5-9.2.5-15.6-6-19.2-6.5-3.6-12.6-5.7-18.3-6.3-5.7-.6-11.6-.5-17.8.1-6.2.7-12.2,1.8-17.9,3.4-6.9,2-13.9,4.8-21,8.6-7.1,3.8-13.2,8.9-18.3,15.5-10.2,12.8-12.2,27.7-6,44.5,3.9,10.9,9.9,20.6,18,28.9,4.3,4.6,9.1,8.3,14.4,11.2,5.3,2.9,10.7,5.1,16.3,6.6,7,1.9,14.1,2.8,21.3,2.6,5.5,0,10.9-.6,16.2-1.7,5.4-1.1,10.5-3.4,15.4-6.8Z"/>
  <path class="st6" d="M736,56.5c0-2.9-.9-5.2-2.4-6.9-.4-.4-.8-.9-1.3-1.2-1.4-1.1-3.2-1.9-5.4-2.5-5.9-1.4-11.3-1.5-16.4-.4-6.5,4.9-9.9,20.8-10.1,47.9-.2,27.1,0,48.1.3,63.1.2,11.4,4.9,17.1,14.2,17h7.5c8.6,0,14-3.6,16.1-10.9-1.3-23.2-2.2-58.6-2.6-106.1Z"/>
  <path class="st12" d="M839.1,118.1c-8.8-24.7-24.9-37.1-48.4-37.1s-12.9,1.2-18.8,3.5c-20.5,9.4-30.8,23.3-30.8,41.6s3.1,20.2,9.2,28.5c10.5,12.5,22.4,18.8,35.9,18.8h6.8c6.8,0,15.7-3.1,26.9-9.2,13.7-10.2,20.5-22.1,20.5-35.9s-.4-4.6-1.2-10.3ZM778.8,125.6c3.4-12.1,8-18.2,13.7-18.2h2.9c5.2,0,8.6,5.5,10.3,16.5v2.3c0,9.8-4.4,16.2-13.1,19.3h-1.8c-6.4,0-10.4-5.5-12-16.4v-3.5Z"/>
  <path class="st3" d="M925.4,136.9c-5.2-2.1-9.4-2.1-12.6.1-.2.2-.5.4-.7.5-.5.4-.9.8-1.3,1.3-3.3,3.9-7,6.3-11.1,7.2-5.5,1.2-9.9,1.3-13.4.2-3.5-1-6.8-3.2-9.9-6.6-3.4-6.7-4.2-12.2-2.5-16.5,1.8-4.3,3.8-7.4,6.2-9.2,2.3-1.8,6-3,10.9-3.8,4.9-.7,10.6-.5,17.1.7,3.2.6,5.9.1,8.1-1.4.3-.2.5-.4.8-.6,1.7-1.6,3.1-4,3.9-7.2,2-7.3.7-12.3-4.1-14.9-4.8-2.6-9.2-4.1-13.3-4.6-4.1-.4-8.4-.4-12.8,0-4.5.5-8.8,1.4-13,2.5-5,1.4-10.1,3.5-15.2,6.2-5.1,2.7-9.6,6.5-13.2,11.2-7.4,9.3-8.9,20.1-4.4,32.3,2.9,7.9,7.2,14.9,13.1,21,3.1,3.3,6.6,6,10.4,8.1,3.8,2.1,7.8,3.7,11.8,4.7,5.1,1.4,10.2,2,15.4,1.9,4,0,7.9-.5,11.8-1.2,3.9-.8,7.6-2.4,11.2-5,1.3-.9,2.6-1.9,3.9-3.1,1.8-1.7,4.4-5.5,7.8-11.3,3.3-5.8,1.8-10-4.6-12.6Z"/>
  <path class="st9" d="M991.2,126.5c3.6-4.8,6.7-9,9.4-12.7s2.6-3.6,3.7-5.2c5.6-8.1,8.5-12.9,8.6-14.6v-2c-4.3-6.1-9.5-10.4-15.6-13.1-2.4-.1-5,1-7.8,3.4-11.5,17.4-17.7,26-18.6,26h-.9c-3.6-41.3-6.5-61.9-8.5-62l-5.6-.3c-13.2-.7-20.7,1.2-22.4,5.6v2.9c.2,15,.5,28.6,1,40.8,0,2,.2,4,.3,6,2.2,48.9,6.4,73.5,12.8,73.8,14.8-1.5,22.3-5,22.6-10.4-.8-9.6-1.1-15.7-1.1-18.3l1.1-1.8c.7,0,1.7.4,2.9,1.1,9.3,13,18.8,21.1,28.5,24.4,5.1.2,10.8-6.3,17.3-19.4-9.9-6.6-19.1-14.7-27.6-24.3Z"/>
  <path class="st6" d="M525.6,148.5c9.4-8.8,15.5-19.8,17.2-30.9,1.5-9.7-.9-19.4-3.1-25.8-5.6-16.1-17.7-27.5-33.1-31-4.1-1-8.6-1.4-13.2-1.4s-8,.3-12.2,1c-17.8,2.7-33.8,15.5-40.8,32.5-7.4,18.1-3.1,38.5,11.3,53.1,10.4,10.6,24.7,16.7,39.2,16.7h0c8.6,0,17-2.2,24.3-6.4,3.6-2,7.1-4.7,10.5-7.8ZM490.9,162c-14.4,0-28.5-6-38.7-16.5-14.2-14.5-18.5-34.5-11.2-52.4,6.9-16.8,22.7-29.4,40.3-32.1,4.2-.7,8.3-1,12.1-1s9,.5,13.1,1.4c15.2,3.5,27.1,14.7,32.6,30.6,2.2,6.3,4.5,15.8,3.1,25.4-1.6,10.9-7.7,21.7-17,30.5-3.3,3.1-6.8,5.7-10.3,7.8-7.2,4.1-15.5,6.3-23.9,6.3Z"/>
  <path class="st6" d="M531.3,154.4c10.9-10.3,18-23,19.9-35.8,1.7-11.3-1-22.5-3.6-29.9-6.5-18.7-20.4-31.8-38.3-35.9-4.8-1.1-9.9-1.7-15.3-1.7s-9.3.4-14.2,1.2c-20.7,3.2-39.2,18-47.3,37.7-8.6,21-3.6,44.5,13.1,61.5,12,12.3,28.6,19.3,45.5,19.3s19.7-2.5,28.1-7.4c4.1-2.4,8.2-5.4,12.1-9.1ZM491,167.9c-16,0-31.8-6.7-43.2-18.4-15.8-16.1-20.6-38.5-12.4-58.4,7.7-18.7,25.3-32.8,44.9-35.8,4.7-.7,9.3-1.1,13.5-1.1s10,.5,14.6,1.6c17,3.9,30.2,16.4,36.4,34.1,2.4,7,5,17.7,3.4,28.4-1.8,12.2-8.5,24.2-18.9,34-3.7,3.5-7.6,6.4-11.5,8.6-8,4.6-17.2,7-26.7,7Z"/>
  <path class="st2" d="M548.1,118.3c1.6-10.7-1-21.3-3.4-28.4-6.2-17.8-19.4-30.2-36.4-34.1-4.5-1.1-9.4-1.6-14.6-1.6s-8.8.4-13.5,1.1c-19.6,3-37.3,17.1-44.9,35.8-8.1,19.9-3.4,42.3,12.4,58.4,11.4,11.7,27.2,18.4,43.2,18.4s18.7-2.4,26.7-7c3.9-2.3,7.8-5.2,11.5-8.6,10.4-9.8,17.1-21.8,18.9-34ZM490.9,162.7c-14.5,0-28.8-6.1-39.2-16.7-14.4-14.7-18.7-35-11.3-53.1,7-17,23-29.8,40.8-32.5,4.3-.7,8.4-1,12.2-1s9.1.5,13.2,1.4c15.4,3.6,27.5,14.9,33.1,31,2.2,6.4,4.5,16,3.1,25.8-1.7,11.1-7.8,22-17.2,30.9-3.4,3.2-6.9,5.8-10.5,7.8-7.3,4.2-15.7,6.4-24.3,6.4h0Z"/>
  <path class="st10" d="M542.1,117.5c1.4-9.6-.9-19.1-3.1-25.4-5.5-15.9-17.4-27.1-32.6-30.6-4.1-.9-8.5-1.4-13.1-1.4s-7.9.3-12.1,1c-17.6,2.7-33.4,15.3-40.3,32.1-7.3,17.9-3,37.9,11.2,52.4,10.3,10.5,24.4,16.5,38.7,16.5s16.8-2.2,23.9-6.3c3.5-2,7-4.6,10.3-7.8,9.3-8.7,15.4-19.6,17-30.5ZM444.7,98.4c1.2-7.9,5-15.4,10.8-21s13.5-9.1,21.4-9.9c2.5-.3,5.2-.2,7.3,1.2s2.9,4.7,1.2,6.5c-.9.9-2.2,1.2-3.4,1.5-4.1,1.1-8,2.6-11.8,4.4-3.5,1.7-7,3.8-9.1,7.1-1.5,2.2-2.2,4.7-3.4,7-1,2-2.3,3.8-3.8,5.5-1.2,1.3-2.6,2.5-4.3,2.9-1.7.4-3.7-.2-4.6-1.7-.6-1.1-.5-2.4-.3-3.5ZM494.2,65.7c.2,1.2.4,2.6-.1,3.7,2-1.2,5-1.8,7.1-1.6,3.7.5,6.2,1.7,7.7,5.3.8,1.9-.9,3.8-2.5,4.4-2.5.9-4.7.3-7.2-.5-1.9-.7-4.4-1.2-6-2.4-1.4-1-1.7-2.6-.5-4-.7,0-1.3-.3-1.6-1.1-.5-1.3,0-2.9.6-4.1.5-1.1,2.4-.8,2.6.3ZM518.2,73.5c-.5,1.3-1.2,2.7-2.5,3.3-1.3.6-2.4-.5-2.2-1.8.2-1.4,1.5-2.4,2.7-3.2,1-.7,2.5.6,2,1.7ZM467.1,149.8c.2-1.4,1.5-2.4,2.7-3.2,1-.7,2.5.6,2,1.7-.5,1.3-1.2,2.7-2.5,3.3-1.3.6-2.4-.5-2.2-1.8ZM461.9,100.3c.2-.6,1.2-.4,1,.3-4,12.9,1.8,28.8,14.3,34.9,12.4,6,28.1,2.2,36.5-8.6.5-.7,1.7.2,1.2.9-8.4,11.9-25.8,16.8-38.9,9.6-12.9-7.1-19-23.2-14.1-37.1ZM465.5,89c3.2,2,13.5,9.5,22.3,16.1-2.2.8-3.6,2.5-4.2,4.4-7.5-8.2-15.9-17.6-18.1-20.5ZM475.9,128.4c-1.1-.4-6-6.4-7.2-9.2-.3-.7-.2-.9-.2-.9.4-.5,6.3-3.5,14.8-7.7,0,.2,0,.4,0,.5-.3,3.2,1.4,7,5.7,8,.1,0,.2,0,.3,0-7.1,5.2-12.6,9-13.4,9.2ZM497.5,122.2c-.7.7-.9.7-1,.7-.4-.2-1.9-1.7-4-3.9,1.6-.4,3.1-1.2,4.1-2.4.9-1,1.5-2.2,1.7-3.5,1.9,1.5,3.1,2.5,3.4,2.8-.1.7-2.5,4.5-4.2,6.3ZM496.2,116.2c-1.7,1.9-4.5,2.8-7,2.3-4-.9-5.5-4.4-5.2-7.3.3-2.8,2.3-5.7,6.1-5.8,0,0,.2,0,.3,0,.1,0,.3,0,.4,0,3.1.1,6.7,2.5,7,6,.2,1.8-.4,3.5-1.6,4.8ZM476.7,86.1c-.9.5-1.6-.8-.8-1.3,8-5.4,19.7-6.3,27.7-.4.9.7.1,2.1-.9,1.5-8.4-4.2-17.7-4.8-26,.2ZM450.5,113.3c-1.4.3-2.9.5-4.1-.4-1.2-.8-.9-2.3.4-2.8,1.3-.5,2.9,0,4.1.6,1.1.5.8,2.4-.3,2.6ZM451.7,133.3c-1.4-.2-1.8-1.7-.9-2.7,1-1.1,2.6-1.2,4-1.3,1.2,0,1.8,1.8.9,2.5-1.1.8-2.4,1.7-3.9,1.5ZM491.6,153.4c.5-1.1,2.4-.8,2.6.3.3,1.4.5,2.9-.4,4.1-.8,1.2-2.3.9-2.8-.4-.5-1.3,0-2.9.6-4.1ZM511.6,153.5c-.8-1.1-1.7-2.4-1.5-3.9.2-1.4,1.7-1.8,2.7-.9,1.1,1,1.2,2.6,1.3,3.9,0,1.2-1.8,1.8-2.5.9ZM517.4,122.3c-.7,1-2.5.4-2.1-.9,1.9-5.1,3-9.9,1.8-15.3-.3-1.4,1.7-1.9,2.1-.6,1.6,5.5,1.5,11.8-1.8,16.7ZM498.5,112.4s0,0,0,0c0-.4,0-.7,0-1.1-.3-2.7-2.3-4.8-4.6-5.8,1.3-.6,2.7-1.3,4.1-2,15.2-7.3,26.6-12.4,29.7-13.4-3,2.7-16.6,13-29.1,22.3ZM538.6,113.3c-1.4.3-2.9.5-4.1-.4-1.2-.8-.9-2.3.4-2.8,1.3-.5,2.9,0,4.1.6,1.1.5.8,2.4-.3,2.6ZM529.3,132.5c1.4.2,2.4,1.5,3.2,2.7.7,1-.6,2.5-1.7,2-1.3-.5-2.7-1.2-3.3-2.5-.6-1.3.5-2.4,1.8-2.2ZM529.7,91.5c1-1.1,2.6-1.2,3.9-1.3,1.2,0,1.8,1.8.9,2.5-1.1.8-2.4,1.7-3.9,1.5-1.4-.2-1.8-1.7-.9-2.7Z"/>
  <path class="st1" d="M497.9,103.5c-1.4.7-2.8,1.3-4.1,2,2.3,1.1,4.3,3.1,4.6,5.8,0,.4,0,.7,0,1.1,0,0,0,0,0,0,12.5-9.3,26.1-19.6,29.1-22.3-3.1,1-14.5,6.1-29.7,13.4Z"/>
  <path class="st1" d="M483.3,111.1c0-.2,0-.4,0-.5-8.5,4.2-14.4,7.2-14.8,7.7,0,0,0,.2.2.9,1.2,2.8,6.1,8.7,7.2,9.2.8-.3,6.3-4.1,13.4-9.2-.1,0-.2,0-.3,0-4.4-1-6-4.8-5.7-8Z"/>
  <path class="st1" d="M487.8,105.1c-8.8-6.6-19.1-14.1-22.3-16.1,2.2,2.9,10.6,12.3,18.1,20.5.6-1.9,2-3.7,4.2-4.4Z"/>
  <path class="st1" d="M498.4,113.1c-.2,1.3-.8,2.5-1.7,3.5-1.1,1.2-2.6,2.1-4.1,2.4,2.1,2.2,3.6,3.7,4,3.9,0,0,.3,0,1-.7,1.8-1.8,4.1-5.5,4.2-6.3-.3-.3-1.5-1.4-3.4-2.8Z"/>
  <path class="st6" d="M490.7,105.3c-.1,0-.3,0-.4,0s-.2,0-.3,0c-3.9.1-5.9,3-6.1,5.8-.3,2.9,1.2,6.4,5.2,7.3,2.5.6,5.3-.4,7-2.3,1.2-1.4,1.8-3.1,1.6-4.8-.4-3.5-3.9-5.8-7-6ZM493.5,114.2c-.7.8-1.8,1.3-2.9,1.3s-.5,0-.8,0c-2.1-.5-2.9-2.3-2.8-3.8.1-1.5,1.2-3,3.3-3.1h.1c0,0,.1,0,.2,0,1.6,0,3.5,1.3,3.7,3.2,0,.9-.2,1.9-.9,2.6Z"/>
  <path class="st1" d="M490.7,109.2c0,0-.1,0-.2,0h-.1c-1.8,0-2.5,1.4-2.6,2.5-.1,1.2.5,2.7,2.2,3.1,1.1.2,2.3-.2,3-1,.5-.6.8-1.3.7-2.1-.2-1.5-1.7-2.5-3-2.6Z"/>
  <path class="st8" d="M490.7,108.5c0,0-.1,0-.2,0h-.1c-2.1,0-3.1,1.6-3.3,3.1-.1,1.5.7,3.4,2.8,3.8.3,0,.5,0,.8,0,1.1,0,2.1-.5,2.9-1.3.7-.7,1-1.6.9-2.6-.2-1.9-2.1-3.1-3.7-3.2ZM493,113.8c-.7.8-2,1.2-3,1-1.7-.4-2.4-1.9-2.2-3.1.1-1.1.9-2.4,2.6-2.5h.1c0,0,.1,0,.2,0,1.3,0,2.9,1.1,3,2.6,0,.8-.2,1.5-.7,2.1Z"/>
  <path class="st11" d="M449.6,103.6c1.7-.4,3.1-1.6,4.3-2.9,1.5-1.6,2.8-3.5,3.8-5.5,1.2-2.3,2-4.9,3.4-7,2.2-3.2,5.6-5.4,9.1-7.1,3.8-1.8,7.8-3.3,11.8-4.4,1.2-.3,2.5-.6,3.4-1.5,1.8-1.8.9-5.1-1.2-6.5s-4.8-1.5-7.3-1.2c-8,.8-15.6,4.4-21.4,9.9s-9.7,13-10.8,21c-.2,1.2-.3,2.5.3,3.5.8,1.5,2.9,2.1,4.6,1.7ZM471,70.8c.2-1.4,1.7-1.8,2.7-.9,1.1,1,1.2,2.6,1.3,3.9,0,1.2-1.8,1.8-2.5.9-.8-1.1-1.7-2.4-1.5-3.9ZM454.5,86.1c1.4.2,2.4,1.5,3.2,2.7.7,1-.6,2.5-1.7,2-1.3-.5-2.7-1.2-3.3-2.5-.6-1.3.5-2.4,1.8-2.2Z"/>
  <path class="st11" d="M492.7,70.6c-1.1,1.3-.8,3,.5,4,1.6,1.2,4.1,1.7,6,2.4,2.4.9,4.6,1.5,7.2.5,1.7-.6,3.3-2.5,2.5-4.4-1.5-3.6-4-4.8-7.7-5.3-2.1-.3-5,.3-7.1,1.6,0,.2-.2.3-.3.5-.3.5-.8.7-1.2.7Z"/>
  <path class="st13" d="M491.6,65.4c-.5,1.3-1.1,2.8-.6,4.1.3.8,1,1.2,1.6,1.1.4,0,.9-.3,1.2-.7.1-.1.2-.3.3-.5.5-1.1.3-2.5.1-3.7-.2-1.2-2.1-1.5-2.6-.3Z"/>
  <path class="st13" d="M493.9,157.9c.8-1.2.6-2.8.4-4.1-.2-1.2-2.1-1.5-2.6-.3-.5,1.3-1.1,2.8-.6,4.1.5,1.3,2,1.5,2.8.4Z"/>
  <path class="st13" d="M534.8,110c-1.3.5-1.5,2-.4,2.8,1.2.8,2.8.6,4.1.4,1.2-.2,1.5-2.1.3-2.6-1.3-.5-2.8-1.1-4.1-.6Z"/>
  <path class="st13" d="M446.7,110c-1.3.5-1.5,2-.4,2.8,1.2.8,2.8.6,4.1.4,1.2-.2,1.5-2.1.3-2.6-1.3-.5-2.8-1.1-4.1-.6Z"/>
  <path class="st13" d="M516.2,71.8c-1.1.8-2.4,1.8-2.7,3.2-.2,1.3.9,2.4,2.2,1.8,1.3-.6,2-2,2.5-3.3.4-1.1-1-2.4-2-1.7Z"/>
  <path class="st13" d="M469.3,151.6c1.3-.6,2-2,2.5-3.3.4-1.1-1-2.4-2-1.7-1.1.8-2.4,1.8-2.7,3.2-.2,1.3.9,2.4,2.2,1.8Z"/>
  <path class="st13" d="M527.5,134.7c.6,1.3,2,2,3.3,2.5,1.1.4,2.4-1,1.7-2-.8-1.1-1.8-2.4-3.2-2.7-1.3-.2-2.4.9-1.8,2.2Z"/>
  <path class="st13" d="M456,90.8c1.1.4,2.4-1,1.7-2-.8-1.1-1.8-2.4-3.2-2.7-1.3-.2-2.4.9-1.8,2.2.6,1.3,2,2,3.3,2.5Z"/>
  <path class="st13" d="M530.6,94.2c1.4.2,2.8-.7,3.9-1.5.9-.7.4-2.6-.9-2.5-1.4,0-3,.2-3.9,1.3-.9,1-.5,2.5.9,2.7Z"/>
  <path class="st13" d="M454.7,129.3c-1.4,0-3,.2-4,1.3-.9,1-.5,2.5.9,2.7,1.4.2,2.8-.7,3.9-1.5.9-.7.4-2.6-.9-2.5Z"/>
  <path class="st13" d="M512.8,148.7c-1-.9-2.5-.5-2.7.9-.2,1.4.7,2.8,1.5,3.9.7.9,2.6.4,2.5-.9,0-1.4-.2-3-1.3-3.9Z"/>
  <path class="st13" d="M475,73.8c0-1.4-.2-3-1.3-3.9-1-.9-2.5-.5-2.7.9-.2,1.4.7,2.8,1.5,3.9.7.9,2.6.4,2.5-.9Z"/>
  <path class="st4" d="M503.6,84.4c-8.1-5.9-19.7-5-27.7.4-.8.6,0,1.9.8,1.3,8.3-5,17.6-4.4,26-.2,1,.5,1.8-.9.9-1.5Z"/>
  <path class="st4" d="M514.8,127.8c.5-.7-.7-1.6-1.2-.9-8.4,10.8-24.1,14.7-36.5,8.6-12.4-6.1-18.3-22-14.3-34.9.2-.6-.8-.9-1-.3-5,13.9,1.2,30,14.1,37.1,13,7.2,30.5,2.3,38.9-9.6Z"/>
  <path class="st4" d="M517.2,106.1c1.2,5.4.1,10.2-1.8,15.3-.5,1.3,1.4,1.9,2.1.9,3.3-4.9,3.5-11.2,1.8-16.7-.4-1.3-2.4-.8-2.1.6Z"/>
</svg>