<?xml version="1.0" encoding="UTF-8"?>
<svg id="Layer_1" xmlns="http://www.w3.org/2000/svg" version="1.1" xmlns:xlink="http://www.w3.org/1999/xlink" viewBox="0 0 1080 1080">
  <!-- Generator: Adobe Illustrator 29.1.0, SVG Export Plug-In . SVG Version: 2.1.0 Build 142)  -->
  <defs>
    <style>
      .st0 {
        fill: url(#linear-gradient2);
      }

      .st1 {
        fill: url(#linear-gradient36);
      }

      .st2 {
        fill: url(#linear-gradient39);
      }

      .st3 {
        fill: url(#linear-gradient34);
      }

      .st4 {
        fill: url(#linear-gradient33);
      }

      .st5 {
        fill: url(#linear-gradient10);
      }

      .st6 {
        fill: url(#linear-gradient32);
      }

      .st7 {
        fill: url(#linear-gradient21);
      }

      .st8 {
        fill: url(#linear-gradient37);
      }

      .st9 {
        fill: url(#linear-gradient27);
      }

      .st10 {
        fill: url(#linear-gradient35);
      }

      .st11 {
        fill: #fff;
      }

      .st12 {
        fill: url(#linear-gradient26);
      }

      .st13 {
        fill: url(#linear-gradient1);
      }

      .st14 {
        fill: url(#linear-gradient9);
      }

      .st15 {
        fill: url(#linear-gradient18);
      }

      .st16 {
        fill: url(#linear-gradient23);
      }

      .st17 {
        fill: url(#linear-gradient8);
      }

      .st18 {
        fill: url(#linear-gradient11);
      }

      .st19 {
        fill: url(#linear-gradient16);
      }

      .st20 {
        fill: url(#linear-gradient24);
      }

      .st21 {
        fill: url(#linear-gradient30);
      }

      .st22 {
        fill: url(#linear-gradient22);
      }

      .st23 {
        fill: url(#linear-gradient29);
      }

      .st24 {
        fill: url(#linear-gradient19);
      }

      .st25 {
        fill: url(#linear-gradient12);
      }

      .st26 {
        fill: url(#linear-gradient42);
      }

      .st27 {
        fill: url(#linear-gradient28);
      }

      .st28 {
        fill: url(#linear-gradient40);
      }

      .st29 {
        fill: url(#linear-gradient7);
      }

      .st30 {
        fill: url(#linear-gradient20);
      }

      .st31 {
        fill: url(#linear-gradient4);
      }

      .st32 {
        fill: url(#linear-gradient31);
      }

      .st33 {
        fill: url(#linear-gradient14);
      }

      .st34 {
        fill: url(#linear-gradient5);
      }

      .st35 {
        fill: url(#linear-gradient3);
      }

      .st36 {
        fill: url(#linear-gradient38);
      }

      .st37 {
        fill: url(#linear-gradient25);
      }

      .st38 {
        fill: url(#linear-gradient15);
      }

      .st39 {
        fill: url(#linear-gradient17);
      }

      .st40 {
        fill: url(#linear-gradient6);
      }

      .st41 {
        fill: url(#linear-gradient13);
      }

      .st42 {
        fill: url(#linear-gradient);
      }

      .st43 {
        fill: url(#linear-gradient41);
      }
    </style>
    <linearGradient id="linear-gradient" x1="421.4" y1="428.9" x2="542" y2="722.1" gradientUnits="userSpaceOnUse">
      <stop offset="0" stop-color="#ed1b68"/>
      <stop offset=".5" stop-color="#662d91"/>
      <stop offset="1" stop-color="#662d91"/>
    </linearGradient>
    <linearGradient id="linear-gradient1" x1="370.7" y1="449.8" x2="491.3" y2="743" xlink:href="#linear-gradient"/>
    <linearGradient id="linear-gradient2" x1="381.2" y1="445.5" x2="501.8" y2="738.7" xlink:href="#linear-gradient"/>
    <linearGradient id="linear-gradient3" x1="435.6" y1="423.1" x2="556.2" y2="716.3" xlink:href="#linear-gradient"/>
    <linearGradient id="linear-gradient4" x1="563.5" y1="370.5" x2="684.2" y2="663.6" xlink:href="#linear-gradient"/>
    <linearGradient id="linear-gradient5" x1="309.1" y1="475.1" x2="429.7" y2="768.3" xlink:href="#linear-gradient"/>
    <linearGradient id="linear-gradient6" x1="309.1" y1="475.1" x2="429.8" y2="768.3" xlink:href="#linear-gradient"/>
    <linearGradient id="linear-gradient7" x1="334.6" y1="464.7" x2="455.2" y2="757.8" xlink:href="#linear-gradient"/>
    <linearGradient id="linear-gradient8" x1="334.6" y1="464.7" x2="455.2" y2="757.8" xlink:href="#linear-gradient"/>
    <linearGradient id="linear-gradient9" x1="362.5" y1="453.2" x2="483.2" y2="746.3" xlink:href="#linear-gradient"/>
    <linearGradient id="linear-gradient10" x1="362.6" y1="453.2" x2="483.2" y2="746.3" xlink:href="#linear-gradient"/>
    <linearGradient id="linear-gradient11" x1="378.6" y1="446.5" x2="499.2" y2="739.7" xlink:href="#linear-gradient"/>
    <linearGradient id="linear-gradient12" x1="378.6" y1="446.5" x2="499.3" y2="739.7" xlink:href="#linear-gradient"/>
    <linearGradient id="linear-gradient13" x1="405.4" y1="435.5" x2="526" y2="728.7" xlink:href="#linear-gradient"/>
    <linearGradient id="linear-gradient14" x1="405.4" y1="435.5" x2="526" y2="728.7" xlink:href="#linear-gradient"/>
    <linearGradient id="linear-gradient15" x1="431.9" y1="424.6" x2="552.6" y2="717.8" xlink:href="#linear-gradient"/>
    <linearGradient id="linear-gradient16" x1="432" y1="424.6" x2="552.6" y2="717.8" xlink:href="#linear-gradient"/>
    <linearGradient id="linear-gradient17" x1="451.3" y1="416.7" x2="571.9" y2="709.8" xlink:href="#linear-gradient"/>
    <linearGradient id="linear-gradient18" x1="451.3" y1="416.6" x2="571.9" y2="709.8" xlink:href="#linear-gradient"/>
    <linearGradient id="linear-gradient19" x1="475.1" y1="406.8" x2="595.8" y2="700" xlink:href="#linear-gradient"/>
    <linearGradient id="linear-gradient20" x1="475.2" y1="406.8" x2="595.8" y2="700" xlink:href="#linear-gradient"/>
    <linearGradient id="linear-gradient21" x1="489.3" y1="401" x2="609.9" y2="694.2" xlink:href="#linear-gradient"/>
    <linearGradient id="linear-gradient22" x1="489.3" y1="401" x2="609.9" y2="694.2" xlink:href="#linear-gradient"/>
    <linearGradient id="linear-gradient23" x1="518.3" y1="389.1" x2="638.9" y2="682.3" xlink:href="#linear-gradient"/>
    <linearGradient id="linear-gradient24" x1="518.3" y1="389.1" x2="638.9" y2="682.2" xlink:href="#linear-gradient"/>
    <linearGradient id="linear-gradient25" x1="529.4" y1="384.5" x2="650" y2="677.7" xlink:href="#linear-gradient"/>
    <linearGradient id="linear-gradient26" x1="529.4" y1="384.5" x2="650" y2="677.7" xlink:href="#linear-gradient"/>
    <linearGradient id="linear-gradient27" x1="555.4" y1="373.8" x2="676" y2="667" xlink:href="#linear-gradient"/>
    <linearGradient id="linear-gradient28" x1="555.4" y1="373.8" x2="676" y2="667" xlink:href="#linear-gradient"/>
    <linearGradient id="linear-gradient29" x1="571.6" y1="367.2" x2="692.2" y2="660.3" xlink:href="#linear-gradient"/>
    <linearGradient id="linear-gradient30" x1="571.6" y1="367.1" x2="692.2" y2="660.3" xlink:href="#linear-gradient"/>
    <linearGradient id="linear-gradient31" x1="592.4" y1="358.6" x2="713" y2="651.8" xlink:href="#linear-gradient"/>
    <linearGradient id="linear-gradient32" x1="592.4" y1="358.6" x2="713" y2="651.8" xlink:href="#linear-gradient"/>
    <linearGradient id="linear-gradient33" x1="605.9" y1="353" x2="726.5" y2="646.2" xlink:href="#linear-gradient"/>
    <linearGradient id="linear-gradient34" x1="605.9" y1="353" x2="726.6" y2="646.2" xlink:href="#linear-gradient"/>
    <linearGradient id="linear-gradient35" x1="619.3" y1="347.5" x2="739.9" y2="640.7" xlink:href="#linear-gradient"/>
    <linearGradient id="linear-gradient36" x1="619.3" y1="347.5" x2="739.9" y2="640.7" xlink:href="#linear-gradient"/>
    <linearGradient id="linear-gradient37" x1="643.3" y1="337.6" x2="763.9" y2="630.8" xlink:href="#linear-gradient"/>
    <linearGradient id="linear-gradient38" x1="643.3" y1="337.6" x2="764" y2="630.8" xlink:href="#linear-gradient"/>
    <linearGradient id="linear-gradient39" x1="655.4" y1="332.7" x2="776.1" y2="625.8" xlink:href="#linear-gradient"/>
    <linearGradient id="linear-gradient40" x1="655.4" y1="332.7" x2="776.1" y2="625.8" xlink:href="#linear-gradient"/>
    <linearGradient id="linear-gradient41" x1="670.1" y1="326.6" x2="790.7" y2="619.8" xlink:href="#linear-gradient"/>
    <linearGradient id="linear-gradient42" x1="670.1" y1="326.6" x2="790.7" y2="619.8" xlink:href="#linear-gradient"/>
  </defs>
  <g>
    <path class="st11" d="M293.8,787.6l18.9-3.7c2.2,9.2,7.5,16.5,13.8,21.6,3.2,2.6,5.3,2.9,6.5,1.4v-.2c1.4-1.5.4-3.8-4.5-9.6-10.1-12.2-17.9-24.3-8.7-35.7v-.2c8.4-10.3,22.8-11.7,37.7.3,10.4,8.4,16.1,17.1,18.4,27.1l-18.6,5.1c-2.1-7.8-6.9-14.3-11.9-18.4-2.7-2.2-4.7-2.3-5.7-.9v.2c-1.3,1.5-.6,3.6,4.2,9.3,11.7,13.7,17.8,25.2,9,36v.2c-9.3,11.3-24.2,10.7-38.7-1-10.9-8.8-18.3-19.9-20.3-31.4Z"/>
    <path class="st11" d="M405.9,817.1l-18.7-8.1,7.8-18,58.8,25.4-7.8,18-18.7-8.1-19.8,45.7-21.3-9.2,19.8-45.7Z"/>
    <path class="st11" d="M464.6,859l4.7-38,23.4,2.9-4.7,37.7c-1.1,8.6,2.9,12.7,9.1,13.5,6.2.8,11-2,12.1-10.4l4.8-38.2,23.4,2.9-4.7,37.5c-2.9,23.5-17.8,31-38.3,28.5-20.6-2.6-32.6-13.7-29.8-36.5Z"/>
    <path class="st11" d="M558.5,828.8l26.1-4.9c27.1-5,43.1,5.8,46.9,26v.2c3.8,20.2-7.4,37.1-35,42.2l-25.3,4.7-12.7-68.2ZM594.1,872.1c10.4-1.9,16.3-7.5,14.5-17.3v-.2c-1.9-9.8-9.4-12.9-19.8-10.9l-3.8.7,5.3,28.4,3.8-.7Z"/>
    <path class="st11" d="M644.2,807.6l21.2-9.4,28.1,63.4-21.2,9.4-28.1-63.4Z"/>
    <path class="st11" d="M705.8,818.2v-.2c-12.4-15.9-9.1-38.8,7.9-51.8,17-13.1,39.6-10.5,51.9,5.5v.2c12.4,15.9,9.1,38.8-7.9,51.8-17,13.1-39.6,10.5-51.9-5.5ZM747.2,786.3v-.2c-5.1-6.5-14.2-9-21.2-3.5-7,5.4-6.9,14.6-1.9,21v.2c5.1,6.5,14.2,9,21.2,3.5,7-5.4,6.9-14.6,1.9-21Z"/>
  </g>
  <g>
    <path class="st11" d="M208.3,669l-9.5-32.5c-3.4-11.8-2.7-20.2.6-26.2,2.8-5.2,7.2-8.7,14-10.7h.2c9.7-2.9,17.9.2,24.2,7.1l18.1-22.1,7.4,25.4-15.3,18.1,1.4,4.8,19-5.6,6.5,22.3-66.6,19.5ZM230.6,627.9c-1.6-5.3-4.9-7.9-9-6.7h-.2c-4.3,1.3-5.4,5.2-3.9,10.4l2.8,9.7,13-3.8-2.8-9.6Z"/>
    <path class="st11" d="M184.4,563l.7-23.2,24.5.8.7-21.2-24.5-.8.7-23.2,69.3,2.2-.7,23.2-24.9-.8-.7,21.2,24.9.8-.7,23.2-69.3-2.2Z"/>
    <path class="st11" d="M244.3,447l-51,9.5,8.8-24.4,25.5-3.5-17.4-19,8.7-24.2,33.1,39.6,23.4,8.4-7.8,21.8-23.1-8.3Z"/>
    <path class="st11" d="M265.3,348.2l-12.3,16.3-15.7-11.8,38.5-51.1,15.7,11.8-12.3,16.3,39.7,29.9-14,18.5-39.7-29.9Z"/>
    <path class="st11" d="M304.3,273.4l18.8-13.6,14.3,19.9,17.2-12.4-14.3-19.9,18.8-13.6,40.6,56.3-18.8,13.6-14.6-20.2-17.2,12.4,14.6,20.2-18.8,13.6-40.6-56.3Z"/>
    <path class="st11" d="M401.7,212l23.2-6.8,21.1,19.2,7.4-27.6,23.2-6.8,19.6,66.5-22.2,6.5-9.7-33-8.3,28.2h-.4c0,.1-22.3-19-22.3-19l9.7,33-21.8,6.4-19.6-66.5Z"/>
    <path class="st11" d="M605.9,258.7c-6.8,2.9-13.9,3.7-21.7,2.2-14.7-2.8-24.3-11.9-21.9-24.6v-.2c1.6-8.2,7.3-14,18.1-16.5-2.2-5-2.6-9.3-1.8-13.5v-.2c2-10.3,12.2-17.2,25.7-14.7,13.1,2.5,19.9,11.7,17.9,21.8v.2c-1.5,7.7-7.4,12.8-15.7,15.3l5,7.1c2.8-2.5,5.4-5.6,8.1-8.8l12.7,9.2c-4.1,4.9-7.9,9.1-11.8,12.6l6.8,9.7-16.5,7.8-4.9-7.4ZM597.2,245.4l-7.6-11.4c-2.8,1.3-4.1,3.1-4.5,5.3v.2c-.7,3.3,1.4,5.9,5.3,6.7,2,.4,4.4,0,6.8-.7ZM605.1,211.1v-.2c.6-2.8-.7-4.9-3.2-5.4-2.5-.5-4.7,1.2-5.3,4.3v.2c-.5,2.3.2,4.7,1.6,7.7,4.2-1.2,6.3-3.7,6.8-6.7Z"/>
    <path class="st11" d="M723.6,237.4l27.2,20.2c9.9,7.3,14.3,14.4,15.4,21.2.9,5.8-.4,11.3-4.7,17v.2c-6.1,8.1-14.5,10.7-23.7,8.9l-1,28.6-21.3-15.7,1.3-23.7-4-2.9-11.8,15.9-18.6-13.8,41.3-55.8ZM730.7,283.6c4.5,3.3,8.6,3.3,11.2-.1v-.2c2.8-3.6,1.3-7.4-3-10.6l-8.1-6-8.1,10.9,8,5.9Z"/>
    <path class="st11" d="M776.2,324.5h.2c16.4-11.8,39.1-7.6,51.5,9.9,12.4,17.5,8.9,40-7.5,51.6h-.2c-16.4,11.8-39.1,7.6-51.5-9.9-12.4-17.5-8.9-40,7.5-51.6ZM806.5,367.2h.2c6.7-4.9,9.5-13.8,4.3-21.1-5.1-7.2-14.3-7.5-20.9-2.8h-.2c-6.7,4.9-9.5,13.8-4.3,21.1,5.1,7.2,14.3,7.5,20.9,2.8Z"/>
    <path class="st11" d="M833.2,413.3h.2c19.3-5.8,39.4,5.5,45.5,26,6.1,20.5-4.4,40.7-23.7,46.4h-.2c-19.3,5.8-39.4-5.5-45.5-26-6.1-20.5,4.4-40.7,23.7-46.4ZM848.1,463.5h.2c7.9-2.4,13.4-9.9,10.9-18.5-2.5-8.5-11.1-11.7-18.9-9.4h-.2c-7.9,2.4-13.4,9.9-10.9,18.5,2.5,8.5,11.1,11.7,18.9,9.4Z"/>
    <path class="st11" d="M872.5,534.1l.4-20.4,19.6.3-1.1,64-19.6-.3.4-20.4-49.7-.9.4-23.2,49.7.9Z"/>
    <path class="st11" d="M829.9,594.6l10.4,16.2c-7.7,5.5-12.6,13-15,20.7-1.2,4-.7,6,1.1,6.6h.2c1.9.6,3.6-1.1,7.2-7.8,7.7-13.9,16-25.6,30-21.3h.2c12.6,4,19.2,16.9,13.5,35.1-4,12.8-10,21.3-18.4,27.1l-11.6-15.5c6.5-4.8,10.8-11.7,12.7-17.8,1-3.3.4-5.2-1.2-5.7h-.2c-1.8-.6-3.5.8-7,7.4-8.4,16-16.9,25.8-30.2,21.6h-.2c-13.9-4.4-18.8-18.5-13.3-36.3,4.2-13.4,11.8-24.4,21.8-30.5Z"/>
  </g>
  <g>
    <g>
      <path class="st42" d="M545.4,688.4v59.2c-1.7,0-3.4,0-5,0s-3.4,0-5.1,0v-59.2h10.1Z"/>
      <path class="st13" d="M480,737.9l4.5,1.5c.7-1.9,1.3-3.8,1.9-5.7,2.4-8,.6-15.7-1.4-23.3-.7-2.6-1-5.1-1-7.5-1.8,4.6-3.8,12.6-3.8,25s0,7.5-.2,10Z"/>
      <path class="st0" d="M511.8,634.2c-.7-3.8-1.3-7.7-1.4-11.6-.4-11.5,3.4-21.2,9.5-29.7,7.5-10.5,10.7-23.1,12.3-36.5.1-1.1.2-2.2.3-3.2h-48.9c-3.1.7-6.5,1.1-10.2,1-49.3-.9-98.6-.2-147.9-.2h-3.3c1.2,4.7,2.5,9.3,3.9,13.8,38.5,0,77.1.2,115.6-.2,18.6-.2,37.3,2.2,56.1-2.2-6.6,6.1-13.8,10.1-21.9,11.8-7.3,1.5-14.6,2.6-21.4,6.6-10.4,6.2-20.9,6-31.3,0-5.3-3-10.7-4.1-16.5-4.1-19.6.1-39.2.1-58.7.2-5.9,0-11.8,0-17.9,0l5.1,13.5c23.4-.1,46.8-.2,70.2,0,3.9,0,8.1,1.1,11.8,2.8,7,3.1,14,5,21.4,4.7.4,0,.9.1,1.9.3-3.2,4.5-6.2,8.6-9,12.7-2,2.9-4.5,3.7-7.4,2.6-6-2.3-12.1-4.3-17.9-7.1-14.7-7.1-29.1-6.9-43.2,1.8-5.1,3.1-10.2,6.1-16.1,7.5l6.7,12.1c5.1-2.6,10.4-5,15.4-8.1,8-4.9,16.3-7.1,25-3.8,6.9,2.5,13.5,5.9,20.4,8.9-.5.3-.9.7-1.3,1-7.4,5.1-15.6,7.4-24,8.5-8.9,1.2-16.2,6.2-22.6,13.4,2.4,3.4,4.9,6.7,7.4,9.9,5.8-5.8,12-9.7,19.4-10.7,3.4-.4,6.9-1,10.2-2.1,19.2-6.7,35.3-19,46.4-39.4,5.7-10.4,13.6-16.1,23.8-17.4,17.6-2.2,31.9-12.1,43.8-27.4.5-.7,1.1-1.4,1.9-2.5-1.1,13.8-8.3,26-18.2,30.5-4.4,2-9.1,3.5-13.7,4.8-16.1,4.3-28.2,13.8-33.5,33.9-3.8,14.4-13.2,21.4-25.3,21.6-17.6.4-29,12-38.7,27.6l8,8.1c3.9-4.6,7.6-9,11.4-13.4,4.3-5.1,9.4-7.8,15.5-8.3,4-.3,8.1-.6,12.1-1.7,13.9-3.8,23.4-14,28.1-30.3,2.1-7.2,5.4-13.3,10.7-17.8,7.6-6.4,16.6-7.2,25.5-9.6-1.2,2.9-2.5,5.8-4.4,7.7-5.8,5.7-11.9,11-17.8,16.6-4,3.8-6.6,8.9-8.3,14.7-.9,3.4-1.8,6.8-2.5,10.2-1.9,8.4-5.9,14.8-12.8,17.9-3.1,1.4-6.5,2.5-9.7,2.6-15.3.6-23.4,12.5-30.5,26.4l9.5,7.1c2.2-3.7,4.4-7.3,6.5-10.8,3.1-5.2,7.3-8.4,12.6-9.3,1.9-.3,3.8-.6,5.7-.8,9.4-1.2,17.7-5.2,23.6-14.6,3.5-5.5,4.9-11.9,6.7-18.3,1.2-4.5,2.5-9.4,5.1-12.7,4.1-5.3,9.1-9.5,14.1-14.4.7,3.8,1.3,6.8,1.8,9.7,1.7,10,0,18.7-6.5,25.7-3.4,3.7-6.8,7.4-10.2,11-9.8,10.2-14,22.8-10,38,2.1,7.9,2.4,15.3.2,22.7l5.7,1.9c.1-2.4.2-5.6.2-10,0-12.4,2-20.4,3.8-25,0-6.2,2.2-11.6,6.6-16.4,3.4-3.7,6.9-7.1,10.3-10.9,10.2-11.3,14.1-25,10.9-41.4Z"/>
      <path class="st35" d="M566.1,674.9c-8-8.8-12.2-19.2-11-32.6.4-4.8.7-10-.2-14.6-1.3-6.7-3.4-13.3-6-19.4-5.2-12.4-6.2-24.9-2.3-37.9,1.7-5.7,3.5-11.5,5.3-17.2h-12c-.7,4.4-1.6,8.9-3,13.1-3.9,11.9-6.5,23.9-5,36.8.2,2.1-.3,4.7-1.2,6.6-3.9,8.8-5.9,18.1-5.5,28.2.2,3.5.1,7.1,0,10.6-.2,8.1-2.3,15.3-6.9,21.3-2.9,3.7-5.9,7.4-8.8,11.2-9.5,12-12.1,25.9-6.6,41.2,2.7,7.4,3.3,14.6,1.9,22.1l10.3,1.6c2.4-8.2,2.7-16.4-.2-24.7-.7-2-1.3-4.1-1.9-6.2-2.7-8.5-1.4-16.1,3.6-22.8,2.8-3.8,5.9-7.4,8.8-11.2,6.1-7.8,10.2-16.7,10.5-27.7.2-7.2,0-14.5.5-21.6.4-4.8,2.3-9.4,3.3-14.1,3.2,5.4,5,11.2,4.9,17.8,0,5.1,0,10.3-.1,15.4,0,9.5,2.2,18.2,7.2,25.5,3.7,5.4,7.8,10.2,11.7,15.4,5.6,7.4,7,15.8,3.9,25.1-.9,2.7-1.8,5.5-2.6,8.2-2.1,7.3-1.5,14.1.5,20.9,3.6-.5,7.1-1,10.6-1.7-.1-.7-.3-1.4-.5-2.1-1.3-5.4-1.1-10.6.9-15.7,1-2.6,1.9-5.4,2.6-8.2,3-11.8,1.6-22.8-4.7-32.5-2.5-3.8-5.2-7.6-8.2-10.8Z"/>
      <path class="st31" d="M606.4,554c-3.3,0-6.8.2-10-.7,0,0,0,0-.1,0h-42.3c-1.1,13.9,0,31.4,7.3,41,.8,1.1,1.5,2.3,2.2,3.5,6,10.5,8.9,21.9,6.1,34.7-4.3,19.5.9,35,13.9,47.2,2.3,2.2,4.6,4.5,6.7,6.8,6.2,6.7,8.1,14.9,5.6,24.6-.6,2.3-1.1,4.7-1.7,7-1.8,7.6-.8,14.5,1.8,21.3l10.7-3.6c-2.7-7.6-2.1-15.1.2-23.1,3.4-11.6,1.3-22.6-5.5-31.7-3.4-4.6-7.5-8.6-11.4-12.6-7.4-7.5-12.4-16.2-10.2-28.6.6-3.4,1.4-6.7,2.2-10.4,1.6,1.4,3,2.6,4.5,3.7,8.5,6.4,14,15.1,16.1,27.2.8,4.6,2.9,9.1,5.2,13.1,6,10.4,15,14.6,25.1,15.4,7.8.6,14,4.2,18.2,12.5,1.5,2.9,3.2,5.7,5,8.6,3.4-2.4,6.8-4.9,10.1-7.5-2-3.2-3.8-6.1-5.5-9.2-5.6-10.4-13.4-16-23.6-16.9-13.4-1.2-22-8.9-25.1-25.3-1.5-8.2-4.6-15.7-10.3-21-5.5-5.1-10.9-10.2-16.6-14.9-2.7-2.2-4.3-4.9-4.8-8.9,3.3.9,6.5,2,9.8,2.7,13.5,2.7,22.5,11.5,27.1,27.3,1.7,5.8,5,11.3,8.5,15.8,6.9,8.9,16,13,25.9,13.3,9.5.3,17.4,3.9,23.4,13,1.4,2.2,3.2,4.1,4.7,6.2.9,1.2,1.8,2.5,2.7,3.8l8.8-8.9c-2.8-3.6-5.5-6.9-8-10.6-7.6-11.5-18-15.5-29.6-16.6-13-1.2-22.8-8.1-27-24-4.4-16.7-14.4-26-28.1-30.3-5.9-1.8-11.8-3.5-17.5-5.9-10.2-4.1-17.4-15.6-17.9-29.6.5.6.8,1,1.1,1.5,11.3,15.5,25.3,24.9,42.5,26.8,11.3,1.2,20.1,7.6,26.1,19.5,2.3,4.5,5,9.2,8.4,12.5,6.8,6.5,14,12.3,21.3,18.1,6.3,5,13.4,7.6,20.8,8.5,9,1.1,17.2,3.8,23.9,11.5l7.5-10.1c-6.1-6.6-12.5-11.7-20.8-13.1-4.6-.8-9.3-1.6-13.7-3.1-4.4-1.5-8.7-3.9-13.5-6.1,6.1-2.6,11.4-4.4,16.4-7.1,10.9-5.7,21.2-4.5,31.5,2.5,4.1,2.8,8.6,4.7,13,6.8l6.5-11.8c-4.4-1.9-8.7-3.5-12.6-6.1-14.7-9.7-29.6-10.5-45.1-3-5.3,2.6-10.8,4.9-16.3,6.9-2.1.8-5,1.3-6.8.2-5.3-3.3-8-9.8-12-15.8,9.1.5,16.8-1.7,24.4-5.2,2.9-1.4,6.3-2.1,9.5-2.1,11.8-.2,23.5-.1,35.3-.1,11.8,0,23.5,0,35.3,0l5-13.3c-24.8,0-49.6,0-74.4-.2-6.7,0-13,1.4-19.1,4.8-9.9,5.4-19.7,5.1-29.7-.3-4.9-2.7-10.3-4.4-15.5-6.1-3.5-1.2-7.2-1.4-10.7-2.4-6.5-1.8-12.3-5.3-16.9-9.8,5.3.6,11.1,1.6,16.9,1.7,16.7.3,33.5.1,50.2.1,34.5,0,68.9,0,103.4,0,1.4-4.5,2.7-9.1,3.9-13.8-50.7,0-101.5,0-152.2,0Z"/>
    </g>
    <g>
      <path class="st34" d="M334,503.5v39.6c-1.7,0-3.4,0-5,0s-3.4,0-5.1,0v-39.6h10.1Z"/>
      <path class="st40" d="M329,545.8c-1.7,0-3.4,0-5.1,0h-2.6v-44.9h15.3v44.8h-2.6c-1.7,0-3.4,0-5.1,0ZM326.5,540.5c1.6,0,3.2,0,4.9,0v-34.4h-4.9v34.4Z"/>
    </g>
    <g>
      <path class="st29" d="M357.5,473v70.1c-1.7,0-3.4,0-5,0s-3.4,0-5.1,0v-70.1h10.1Z"/>
      <path class="st17" d="M352.4,545.8c-1.7,0-3.5,0-5.1,0h-2.5v-75.4h15.3v75.3h-2.5c-1.7.1-3.4.2-5.1.2ZM350,540.5c1.6,0,3.2,0,4.9,0v-64.9h-4.9v64.9Z"/>
    </g>
    <g>
      <path class="st14" d="M380.9,428v115.1c-1.7,0-3.4.1-5,.1s-3.4,0-5.1-.1v-115.1h10.1Z"/>
      <path class="st5" d="M375.9,546.1c-1.7,0-3.5,0-5.2-.1h-2.7v-120.8h15.9v120.7h-2.7c-1.7.2-3.5.3-5.2.3ZM373.7,540.3c1.4,0,2.9,0,4.3,0v-109.4h-4.3v109.4Z"/>
    </g>
    <g>
      <path class="st18" d="M404.4,450.6v92.5c-1.7,0-3.4.1-5,.1s-3.4,0-5.1-.1v-92.5h10.1Z"/>
      <path class="st25" d="M399.3,546c-1.7,0-3.5,0-5.2-.1h-2.7v-98.1h15.7v98h-2.7c-1.7.2-3.4.2-5.2.2ZM397,540.4c1.5,0,3,0,4.5,0v-87h-4.5v87Z"/>
    </g>
    <g>
      <path class="st41" d="M427.8,412.6v130.4c-1.7,0-3.4.1-5,.1s-3.4,0-5.1-.1v-130.4h10.1Z"/>
      <path class="st33" d="M422.8,545.7c-1.7,0-3.5,0-5.2-.2h-2.4v-135.5h15.1v135.3h-2.4c-1.7.2-3.5.3-5.2.3ZM420.2,540.6c1.7,0,3.4,0,5.1,0v-125.5h-5.1v125.5Z"/>
    </g>
    <g>
      <path class="st38" d="M451.3,375.5v167.5c-1.7.1-3.4.2-5,.2s-3.4,0-5.1-.2v-167.5h10.1Z"/>
      <path class="st19" d="M446.2,546.4c-1.8,0-3.6,0-5.3-.2l-2.9-.2v-173.6h16.5v173.6l-2.9.2c-1.7.1-3.5.2-5.3.2ZM444.3,540c1.2,0,2.5,0,3.7,0v-161.3h-3.7v161.3Z"/>
    </g>
    <g>
      <path class="st39" d="M474.7,379.7v163.3c-1.7.1-3.4.2-5,.2s-3.4,0-5.1-.2v-163.3h10.1Z"/>
      <path class="st15" d="M469.7,545.8c-1.8,0-3.5,0-5.2-.2l-2.4-.2v-168.3h15.3v168.3l-2.4.2c-1.7.1-3.5.2-5.2.2ZM467.2,540.5c1.6,0,3.2,0,4.9,0v-158.2h-4.9v158.2Z"/>
    </g>
    <g>
      <path class="st24" d="M498.1,358v185c-1.7.1-3.4.2-5,.2s-3.4,0-5.1-.2v-185h10.1Z"/>
      <path class="st30" d="M493.1,545.8c-1.8,0-3.5,0-5.3-.2l-2.4-.2v-190.1h15.3v190.1l-2.4.2c-1.7.1-3.5.2-5.3.2ZM490.7,540.5c1.6,0,3.2,0,4.9,0v-179.9h-4.9v179.9Z"/>
    </g>
    <g>
      <path class="st7" d="M521.6,391.6v151.4c-1.7.1-3.4.2-5,.2s-3.4,0-5.1-.2v-151.4h10.1Z"/>
      <path class="st22" d="M516.6,545.8c-1.8,0-3.5,0-5.2-.2l-2.4-.2v-156.5h15.3v156.5l-2.4.2c-1.7.1-3.5.2-5.2.2ZM514.1,540.5c1.6,0,3.2,0,4.9,0v-146.3h-4.9v146.3Z"/>
    </g>
    <g>
      <path class="st16" d="M545,340.9v202.1c-1.7.1-3.4.2-5,.2s-3.4,0-5.1-.2v-202.1h10.1Z"/>
      <path class="st20" d="M540,545.8c-1.8,0-3.6,0-5.3-.2l-2.4-.2v-207.1h15.3v207.1l-2.4.2c-1.7.2-3.5.2-5.3.2ZM537.6,540.5c1.6,0,3.2,0,4.9,0v-197h-4.9v197Z"/>
    </g>
    <g>
      <path class="st37" d="M568.5,391.6v151.4c-1.7.1-3.4.2-5,.2s-3.4,0-5.1-.2v-151.4h10.1Z"/>
      <path class="st12" d="M563.5,545.8c-1.8,0-3.5,0-5.2-.2l-2.4-.2v-156.5h15.3v156.5l-2.4.2c-1.7.1-3.5.2-5.2.2ZM561,540.5c1.6,0,3.2,0,4.9,0v-146.3h-4.9v146.3Z"/>
    </g>
    <g>
      <path class="st9" d="M591.9,358v185c-1.7.1-3.4.2-5,.2s-3.4,0-5.1-.2v-185h10.1Z"/>
      <path class="st27" d="M586.9,545.8c-1.8,0-3.5,0-5.3-.2l-2.4-.2v-190.1h15.3v190.1l-2.4.2c-1.7.1-3.5.2-5.3.2ZM584.5,540.5c1.6,0,3.2,0,4.9,0v-179.9h-4.9v179.9Z"/>
    </g>
    <g>
      <path class="st23" d="M615.4,379.7v163.3c-1.7.1-3.4.2-5,.2s-3.4,0-5.1-.2v-163.3h10.1Z"/>
      <path class="st21" d="M610.4,545.8c-1.8,0-3.5,0-5.2-.2l-2.4-.2v-168.3h15.3v168.3l-2.4.2c-1.7.1-3.5.2-5.2.2ZM607.9,540.5c1.6,0,3.2,0,4.9,0v-158.2h-4.9v158.2Z"/>
    </g>
    <g>
      <path class="st32" d="M638.8,375.5v167.5c-1.7.1-3.4.2-5,.2s-3.4,0-5.1-.2v-167.5h10.1Z"/>
      <path class="st6" d="M633.8,546.4c-1.8,0-3.6,0-5.3-.2l-2.9-.2v-173.6h16.5v173.6l-2.9.2c-1.7.1-3.5.2-5.3.2ZM631.9,540c1.2,0,2.5,0,3.7,0v-161.3h-3.7v161.3Z"/>
    </g>
    <g>
      <path class="st4" d="M662.3,412.6v130.4c-1.7,0-3.4.1-5,.1s-3.4,0-5.1-.1v-130.4h10.1Z"/>
      <path class="st3" d="M657.3,545.7c-1.7,0-3.5,0-5.2-.2h-2.4v-135.5h15.1v135.3h-2.4c-1.7.2-3.5.3-5.2.3ZM654.7,540.6c1.7,0,3.4,0,5.1,0v-125.5h-5.1v125.5Z"/>
    </g>
    <g>
      <path class="st10" d="M685.7,450.6v92.5c-1.7,0-3.4.1-5,.1s-3.4,0-5.1-.1v-92.5h10.1Z"/>
      <path class="st1" d="M680.7,546c-1.7,0-3.5,0-5.2-.1h-2.7v-98.1h15.7v98h-2.7c-1.7.2-3.4.2-5.2.2ZM678.4,540.4c1.5,0,3,0,4.5,0v-87h-4.5v87Z"/>
    </g>
    <g>
      <path class="st8" d="M709.2,428v115.1c-1.7,0-3.4.1-5,.1s-3.4,0-5.1-.1v-115.1h10.1Z"/>
      <path class="st36" d="M704.2,546.1c-1.7,0-3.5,0-5.2-.1h-2.7v-120.8h15.9v120.7h-2.7c-1.7.2-3.5.3-5.2.3ZM702,540.3c1.4,0,2.9,0,4.3,0v-109.4h-4.3v109.4Z"/>
    </g>
    <g>
      <path class="st2" d="M732.6,473v70.1c-1.7,0-3.4,0-5,0s-3.4,0-5.1,0v-70.1h10.1Z"/>
      <path class="st28" d="M727.6,545.8c-1.7,0-3.5,0-5.1,0h-2.5v-75.4h15.3v75.3h-2.5c-1.7.1-3.4.2-5.1.2ZM725.2,540.5c1.6,0,3.2,0,4.9,0v-64.9h-4.9v64.9Z"/>
    </g>
    <g>
      <path class="st43" d="M756.1,503.5v39.6c-1.7,0-3.4,0-5,0s-3.4,0-5.1,0v-39.6h10.1Z"/>
      <path class="st26" d="M751.1,545.8c-1.7,0-3.4,0-5.1,0h-2.6v-44.9h15.3v44.8h-2.6c-1.7,0-3.4,0-5.1,0ZM748.6,540.5c1.6,0,3.2,0,4.9,0v-34.4h-4.9v34.4Z"/>
    </g>
  </g>
  <path class="st11" d="M540,802.6c-144.8,0-262.6-117.8-262.6-262.6s117.8-262.6,262.6-262.6,262.6,117.8,262.6,262.6-117.8,262.6-262.6,262.6ZM540,285.1c-140.5,0-254.9,114.3-254.9,254.9s114.3,254.9,254.9,254.9,254.9-114.3,254.9-254.9-114.3-254.9-254.9-254.9Z"/>
  <path class="st11" d="M540,938.6c-219.8,0-398.6-178.8-398.6-398.6s178.8-398.6,398.6-398.6,398.6,178.8,398.6,398.6-178.8,398.6-398.6,398.6ZM540,157.3c-211,0-382.7,171.7-382.7,382.7s171.7,382.7,382.7,382.7,382.7-171.7,382.7-382.7-171.7-382.7-382.7-382.7Z"/>
</svg>